<svg width="42" height="40" viewBox="0 0 42 40" fill="none" xmlns="http://www.w3.org/2000/svg">
<path d="M23.1 12.243C24.885 11.613 26.313 10.185 26.943 8.4H33.6L27.3 23.1C27.3 26.586 30.597 29.4 34.65 29.4C38.703 29.4 42 26.586 42 23.1L35.7 8.4H39.9V4.2H26.943C26.082 1.743 23.751 0 21 0C18.249 0 15.918 1.743 15.057 4.2H2.1V8.4H6.3L0 23.1C0 26.586 3.297 29.4 7.35 29.4C11.403 29.4 14.7 26.586 14.7 23.1L8.4 8.4H15.057C15.687 10.185 17.115 11.613 18.9 12.243V35.7H0V39.9H42V35.7H23.1V12.243ZM38.577 23.1H30.723L34.65 13.944L38.577 23.1ZM11.277 23.1H3.423L7.35 13.944L11.277 23.1ZM21 8.4C19.845 8.4 18.9 7.455 18.9 6.3C18.9 5.145 19.845 4.2 21 4.2C22.155 4.2 23.1 5.145 23.1 6.3C23.1 7.455 22.155 8.4 21 8.4Z" fill="white" fill-opacity="0.5"/>
</svg>
