<svg width="64" height="42" viewBox="0 0 64 42" fill="none" xmlns="http://www.w3.org/2000/svg">
<path d="M47.5059 39.7761V41.9104H44.2764V32.3059L46.9139 24.8358H61.0163L63.6538 32.3059V41.9104H60.4242V39.7761H47.5059ZM47.2906 30.1716H60.6396L59.5092 26.9701H48.421L47.2906 30.1716ZM49.1207 36.5746C49.5693 36.5746 49.9504 36.4188 50.264 36.1071C50.5783 35.7962 50.7355 35.4185 50.7355 34.9738C50.7355 34.5292 50.5783 34.1514 50.264 33.8405C49.9504 33.5289 49.5693 33.3731 49.1207 33.3731C48.6722 33.3731 48.2911 33.5289 47.9775 33.8405C47.6631 34.1514 47.5059 34.5292 47.5059 34.9738C47.5059 35.4185 47.6631 35.7962 47.9775 36.1071C48.2911 36.4188 48.6722 36.5746 49.1207 36.5746ZM58.8095 36.5746C59.258 36.5746 59.6391 36.4188 59.9527 36.1071C60.2671 35.7962 60.4242 35.4185 60.4242 34.9738C60.4242 34.5292 60.2671 34.1514 59.9527 33.8405C59.6391 33.5289 59.258 33.3731 58.8095 33.3731C58.3609 33.3731 57.9798 33.5289 57.6662 33.8405C57.3518 34.1514 57.1947 34.5292 57.1947 34.9738C57.1947 35.4185 57.3518 35.7962 57.6662 36.1071C57.9798 36.4188 58.3609 36.5746 58.8095 36.5746Z" fill="#00373A"/>
<path d="M7.69717 41.9104V22.1879H0.236328L25.1058 0L35.0536 8.87515V2.46532H42.5144V15.5315L49.9753 22.1879H42.5144V41.9104H27.5927V27.1185H22.6188V41.9104H7.69717ZM12.6711 36.9798H17.645V22.1879H32.5666V36.9798H37.5405V17.7503L25.1058 6.65636L12.6711 17.7503V36.9798ZM17.645 22.1879H32.5666H17.645ZM20.1319 17.3189H30.0797C30.0797 16.004 29.5823 14.925 28.5875 14.0819C27.5927 13.2404 26.4322 12.8197 25.1058 12.8197C23.7794 12.8197 22.6188 13.2404 21.6241 14.0819C20.6293 14.925 20.1319 16.004 20.1319 17.3189Z" fill="#00373A"/>
</svg>
