<svg width="47" height="46" viewBox="0 0 47 46" fill="none" xmlns="http://www.w3.org/2000/svg">
<path d="M31.594 4.51343C31.594 2.00848 33.6025 0 36.1075 0C38.6124 0 40.6209 2.00848 40.6209 4.51343C40.6209 7.01839 38.6124 9.02687 36.1075 9.02687C33.6025 9.02687 31.594 7.01839 31.594 4.51343ZM40.6209 45.1343V31.594H46.2627L40.5306 14.3753C40.2287 13.4765 39.6527 12.6948 38.8837 12.1403C38.1146 11.5857 37.191 11.2861 36.2429 11.2836H35.9721C35.0231 11.2827 34.098 11.581 33.3282 12.136C32.5585 12.6911 31.9832 13.4746 31.6843 14.3753L29.7435 20.1976C32.1808 21.5516 33.8507 24.1017 33.8507 27.0806V45.1343H40.6209ZM23.6955 21.4388C25.5686 21.4388 27.0806 19.9268 27.0806 18.0537C27.0806 16.1807 25.5686 14.6687 23.6955 14.6687C21.8224 14.6687 20.3104 16.1807 20.3104 18.0537C20.3104 19.9268 21.8224 21.4388 23.6955 21.4388ZM7.89851 9.02687C10.4035 9.02687 12.4119 7.01839 12.4119 4.51343C12.4119 2.00848 10.4035 0 7.89851 0C5.39355 0 3.38507 2.00848 3.38507 4.51343C3.38507 7.01839 5.39355 9.02687 7.89851 9.02687ZM12.4119 45.1343V29.3373H15.797V15.797C15.797 13.3146 13.766 11.2836 11.2836 11.2836H4.51343C2.03104 11.2836 0 13.3146 0 15.797V29.3373H3.38507V45.1343H12.4119ZM27.0806 45.1343V36.1075H29.3373V27.0806C29.3373 25.2301 27.8027 23.6955 25.9522 23.6955H21.4388C19.5883 23.6955 18.0537 25.2301 18.0537 27.0806V36.1075H20.3104V45.1343H27.0806Z" fill="#00373A"/>
</svg>
