<svg width="41" height="48" viewBox="0 0 41 48" fill="none" xmlns="http://www.w3.org/2000/svg">
<path d="M4.47823 0C1.99281 0 0 1.99281 0 4.47823V40.3041C0 41.4918 0.471812 42.6309 1.31164 43.4707C2.15148 44.3105 3.29053 44.7823 4.47823 44.7823H13.4347V40.5056L18.1145 35.8259H4.47823V31.3476H22.5927L27.0709 26.8694H4.47823V22.3912H31.5492L35.8259 18.1145V13.4347L22.3912 0H4.47823ZM20.1521 3.35868L32.4672 15.6738H20.1521V3.35868ZM36.1617 24.6303C35.996 24.6267 35.8313 24.6565 35.6774 24.7181C35.5235 24.7796 35.3836 24.8716 35.2661 24.9885L32.9822 27.2724L37.6619 31.9298L39.9459 29.6683C40.4161 29.1757 40.4161 28.3696 39.9459 27.8994L37.035 24.9885C36.9206 24.8737 36.7844 24.7829 36.6345 24.7214C36.4845 24.6599 36.3238 24.6289 36.1617 24.6303ZM31.6611 28.5935L17.9129 42.3641V47.0215H22.5703L36.3409 33.2509L31.6611 28.5935Z" fill="#00373A"/>
</svg>
