<svg width="44" height="44" viewBox="0 0 44 44" fill="none" xmlns="http://www.w3.org/2000/svg">
<path d="M43.5217 16.2586C43.4922 15.0742 42.5518 14.1323 41.3969 14.0048C40.5661 14.0258 39.7365 14.0797 38.91 14.1665C37.3308 14.3312 35.7329 14.6079 34.6915 14.967C33.7355 15.2965 31.7848 16.1716 29.2761 17.3405C27.8617 17.9995 26.2918 18.7425 24.6473 19.5196C23.3883 20.115 22.0873 20.7305 20.7801 21.3444C17.7693 22.7589 14.7352 24.1594 12.1736 25.263C9.64006 26.3541 7.48418 27.1919 6.27024 27.4297C4.77185 27.7235 2.48074 27.9846 0.732097 28.0639C0.575108 28.5193 0.397913 28.967 0.202065 29.4084C0.0621741 29.6882 0 29.9991 0 30.341C0.00817345 30.954 0.257419 31.539 0.693781 31.9696C1.13014 32.4001 1.71851 32.6415 2.33152 32.6414C6.7039 32.6414 8.70279 31.7461 12.6011 29.9975L12.8389 29.8902L32.5791 20.9994C32.9164 20.8486 33.2319 20.7041 33.5335 20.5673C36.3298 19.2989 37.752 18.6523 41.1747 18.6523C42.4958 18.6523 43.5528 17.5798 43.5217 16.2586Z" fill="#00373A"/>
<path d="M38.7497 12.6214C38.8833 12.6059 39.0186 12.5934 39.1538 12.581C36.3917 5.22895 29.2961 0.00012207 20.9835 0.00012207C10.3362 0.00012207 1.55415 8.81327 1.55415 19.4295V23.4086C1.55073 24.4439 1.4287 25.4755 1.19043 26.4831C2.7541 26.3852 4.67217 26.1582 5.97005 25.9049C6.99125 25.7044 8.98859 24.9412 11.5579 23.836C14.0962 22.7433 17.1101 21.3491 20.1193 19.9377C21.4172 19.3284 22.7166 18.7129 23.9741 18.1191L23.9772 18.1176C25.6263 17.3373 27.2055 16.5912 28.62 15.9322C31.1007 14.7757 33.1338 13.8602 34.1846 13.4981C35.3969 13.0784 37.1347 12.7893 38.7497 12.6214ZM26.1688 37.3045L25.2362 34.0403H17.5017L18.652 37.3045H26.1688Z" fill="#00373A"/>
<path d="M24.3803 30.9315H25.2741C26.645 30.9315 27.8822 31.8517 28.26 33.1776L29.191 36.4339C29.3278 36.8987 29.3535 37.3891 29.266 37.8656C29.1785 38.3421 28.9803 38.7914 28.6874 39.1773C28.277 39.7183 27.6988 40.11 27.0553 40.2934L27.6211 42.2783C27.8076 42.9 27.3413 43.5217 26.6885 43.5217H21.0773C20.8251 43.5217 20.5796 43.4399 20.3779 43.2886C20.1761 43.1372 20.0288 42.9245 19.9582 42.6824L19.3116 40.413H18.6525C18.0135 40.4095 17.3907 40.2114 16.867 39.8452C16.3433 39.4789 15.9436 38.9619 15.721 38.3629L15.7148 38.3473L14.5522 35.0505L14.5459 35.0303C14.3904 34.5617 14.348 34.0628 14.4223 33.5747C14.4966 33.0865 14.6855 32.6228 14.9734 32.2216C15.3858 31.66 15.9721 31.2503 16.6412 31.0559L16.3459 30.016L23.2316 26.9135L24.3819 30.9315H24.3803ZM26.2067 38.8587H26.2331C26.4695 38.8524 26.7015 38.7933 26.912 38.6857C27.1226 38.5781 27.3065 38.4248 27.4501 38.237C27.5958 38.0444 27.6942 37.8203 27.7374 37.5827C27.7806 37.3451 27.7674 37.1007 27.6988 36.8691L26.7662 33.605C26.6692 33.2838 26.4721 33.002 26.2037 32.8007C25.9353 32.5994 25.6096 32.4891 25.2741 32.4859H17.5023C17.2539 32.4889 17.0095 32.5494 16.7884 32.6627C16.5673 32.7759 16.3754 32.9389 16.2277 33.1387C16.0838 33.3413 15.9903 33.5754 15.9551 33.8214C15.92 34.0675 15.9442 34.3184 16.0257 34.5532L17.1759 37.8173C17.2871 38.1203 17.4879 38.3823 17.7517 38.5684C18.0155 38.7544 18.3297 38.8557 18.6525 38.8587H26.2067Z" fill="#00373A"/>
</svg>
