<svg width="46" height="30" viewBox="0 0 46 30" fill="none" xmlns="http://www.w3.org/2000/svg">
<path d="M13.3726 0H16.4052C16.8352 0.000131808 17.2492 0.163496 17.5634 0.457083C17.8776 0.750669 18.0687 1.15259 18.098 1.58163C18.1273 2.01067 17.9927 2.43484 17.7213 2.76844C17.4499 3.10204 17.062 3.32018 16.636 3.3788L16.4074 3.39464H13.3749C12.9813 3.39385 12.5997 3.52985 12.2954 3.77937L12.1257 3.94457L7.432 9.05011H15.2759C16.5305 9.0499 17.741 9.51288 18.6753 10.3503C19.6096 11.1876 20.2018 12.3405 20.3384 13.5876H24.9257C25.0628 12.3413 25.6549 11.1893 26.5887 10.3524C27.5224 9.51557 28.7321 9.05266 29.986 9.05237L37.8548 9.05011L33.1407 3.94005C32.8742 3.65154 32.5159 3.46438 32.1269 3.41048L31.8915 3.39464H28.8477C28.4176 3.39451 28.0037 3.23114 27.6894 2.93756C27.3752 2.64397 27.1841 2.24205 27.1548 1.81301C27.1255 1.38397 27.2601 0.959796 27.5315 0.6262C27.8029 0.292605 28.1908 0.074459 28.6168 0.0158416L28.8477 0H31.8938C33.1676 0.000583982 34.395 0.478611 35.3337 1.33975L35.6347 1.63848L43.8769 10.5709C43.99 10.6954 44.0828 10.8312 44.153 10.9737C44.8455 11.8428 45.2596 12.9449 45.2596 14.1421V22.0561C45.2596 24.0068 44.4847 25.8776 43.1054 27.2569C41.726 28.6363 39.8552 29.4112 37.9046 29.4112H32.2491C30.2984 29.4112 28.4276 28.6363 27.0483 27.2569C25.6689 25.8776 24.894 24.0068 24.894 22.0561L24.8918 16.9823H20.3633V22.0561C20.3633 24.0068 19.5884 25.8776 18.2091 27.2569C16.8297 28.6363 14.9589 29.4112 13.0083 29.4112H7.35505C5.40437 29.4112 3.53359 28.6363 2.15425 27.2569C0.774905 25.8776 0 24.0068 0 22.0561V14.1443C0 12.8725 0.466197 11.7092 1.23565 10.8176L1.32165 10.6931L1.42122 10.5754L9.62267 1.64753C10.4871 0.706491 11.6738 0.124867 12.9472 0.0181045L13.3726 0H16.4052H13.3726ZM15.2736 12.447H5.09196C4.6418 12.447 4.21008 12.6258 3.89177 12.9441C3.57346 13.2625 3.39464 13.6942 3.39464 14.1443V22.0561C3.39464 24.2445 5.16891 26.0165 7.35505 26.0165H13.0105C14.0609 26.0165 15.0682 25.5993 15.811 24.8565C16.5537 24.1138 16.9709 23.1065 16.9709 22.0561V14.1443C16.9709 13.6942 16.7921 13.2625 16.4738 12.9441C16.1555 12.6258 15.7238 12.447 15.2736 12.447ZM40.1676 12.447H29.986C29.5358 12.447 29.1041 12.6258 28.7858 12.9441C28.4675 13.2625 28.2887 13.6942 28.2887 14.1443V22.0561C28.2887 24.2445 30.0629 26.0165 32.2491 26.0165H37.9046C38.9549 26.0165 39.9623 25.5993 40.705 24.8565C41.4477 24.1138 41.865 23.1065 41.865 22.0561V14.1443C41.865 13.6942 41.6861 13.2625 41.3678 12.9441C41.0495 12.6258 40.6178 12.447 40.1676 12.447Z" fill="#00373A"/>
</svg>
