<svg width="46" height="46" viewBox="0 0 46 46" fill="none" xmlns="http://www.w3.org/2000/svg">
<path d="M1.42739 35.9252C1.58408 36.6058 1.917 37.2333 2.39274 37.7447C2.86848 38.2561 3.47033 38.6334 4.13791 38.8388L4.54415 40.624H4.5103V45.1378H40.6205V40.624H10.5655C10.5952 40.4155 10.5898 40.2034 10.5497 39.9966L10.1074 38.0489L33.482 32.7317L33.9244 34.6794C34.0422 35.1961 34.3604 35.6449 34.8089 35.9272C35.2575 36.2094 35.7998 36.3021 36.3167 36.1847L38.2644 35.7401C38.5204 35.682 38.7624 35.5741 38.9767 35.4224C39.1909 35.2707 39.3731 35.0782 39.5129 34.856C39.6528 34.6338 39.7474 34.3863 39.7915 34.1275C39.8355 33.8687 39.8281 33.6037 39.7697 33.3478L39.2032 30.8585C40.2098 29.9196 40.7153 28.4978 40.3881 27.0601L39.0565 21.2148C38.8949 20.5105 38.5443 19.8637 38.0425 19.344C37.5406 18.8242 36.9065 18.4512 36.2083 18.265L31.584 10.6412C30.902 9.52113 29.8856 8.64342 28.6781 8.13199C27.4705 7.62055 26.1329 7.5012 24.8539 7.79079L7.0967 11.8306C5.81632 12.1207 4.65981 12.8065 3.79125 13.791C2.92269 14.7754 2.38621 16.0083 2.25792 17.3149L1.38451 26.189C0.836689 26.6593 0.427447 27.2701 0.200785 27.9557C-0.0258766 28.6412 -0.0613843 29.3756 0.0980801 30.0798L1.42739 35.9252ZM8.2432 34.3724C7.85953 34.4599 7.46241 34.4709 7.07449 34.4048C6.68657 34.3388 6.31546 34.197 5.98235 33.9875C5.64924 33.7781 5.36064 33.505 5.13304 33.184C4.90545 32.863 4.7433 32.5003 4.65587 32.1167C4.56844 31.733 4.55743 31.3359 4.62347 30.948C4.68952 30.5601 4.83132 30.1889 5.04079 29.8558C5.25026 29.5227 5.52328 29.2341 5.84428 29.0065C6.16528 28.7789 6.52797 28.6168 6.91163 28.5294C7.68647 28.3528 8.49972 28.4912 9.17248 28.9143C9.84523 29.3373 10.3224 30.0103 10.499 30.7851C10.6755 31.56 10.5371 32.3732 10.114 33.046C9.691 33.7187 9.01804 34.1959 8.2432 34.3724ZM33.57 28.6129C33.1798 28.7201 32.7719 28.7472 32.3709 28.6926C31.9699 28.638 31.5841 28.5027 31.2368 28.2949C30.8896 28.0871 30.5879 27.8111 30.3502 27.4837C30.1124 27.1562 29.9435 26.7839 29.8535 26.3893C29.7635 25.9948 29.7544 25.5861 29.8266 25.1879C29.8989 24.7897 30.051 24.4102 30.2739 24.0724C30.4967 23.7346 30.7857 23.4454 31.1233 23.2223C31.461 22.9992 31.8403 22.8468 32.2385 22.7743C32.998 22.6359 33.7817 22.796 34.4261 23.2211C35.0705 23.6463 35.5261 24.3037 35.6977 25.0565C35.8694 25.8092 35.744 26.5991 35.3476 27.2617C34.9512 27.9242 34.3145 28.4082 33.57 28.6129ZM8.0965 16.2316L25.856 12.1895C26.2118 12.1091 26.5839 12.1422 26.92 12.2843C27.256 12.4264 27.539 12.6703 27.7292 12.9816L31.3064 18.8789L30.029 19.17L7.35624 24.3315L6.07433 24.6227L6.74914 17.7572C6.78546 17.3938 6.93509 17.0509 7.17687 16.7772C7.41864 16.5034 7.74034 16.3125 8.0965 16.2316ZM37.0208 4.51378L33.8499 0L32.7214 6.77067L38.3637 15.7982L45.1343 18.0551L40.6205 12.3249L45.1343 10.2192L40.6205 8.11352L45.1343 0L37.0208 4.51378Z" fill="#00373A"/>
</svg>
