<svg width="47" height="42" viewBox="0 0 47 42" fill="none" xmlns="http://www.w3.org/2000/svg">
<path d="M33.5284 12.5731H37.7194V8.38209H33.5284V12.5731ZM35.6239 41.9104C32.7251 41.9104 30.2544 40.8892 28.212 38.8468C26.1682 36.803 25.1463 34.3316 25.1463 31.4328C25.1463 28.534 26.1682 26.0627 28.212 24.0189C30.2544 21.9764 32.7251 20.9552 35.6239 20.9552C38.5227 20.9552 40.994 21.9764 43.0378 24.0189C45.0803 26.0627 46.1015 28.534 46.1015 31.4328C46.1015 34.3316 45.0803 36.803 43.0378 38.8468C40.994 40.8892 38.5227 41.9104 35.6239 41.9104ZM34.5761 32.4806V37.9795H36.6716V32.4806H41.9104V30.3851H36.6716V25.1463H34.5761V30.3851H29.3373V32.4806H34.5761ZM46.1015 21.2172C44.7394 19.7503 43.1503 18.6411 41.3342 17.8895C39.5181 17.1393 37.6146 16.7642 35.6239 16.7642C35.2397 16.7642 34.8821 16.7726 34.551 16.7893C34.2185 16.8075 33.8776 16.8515 33.5284 16.9213V14.6687L29.3373 11.6451L18.8597 4.08627V0H46.1015V21.2172ZM0 37.7194V16.7642L14.6687 6.28657L29.3373 16.7642V18.1787C26.8227 19.3661 24.797 21.1732 23.2603 23.5998C21.7236 26.0278 20.9552 28.6388 20.9552 31.4328C20.9552 32.5155 21.0691 33.5898 21.2968 34.6558C21.5231 35.7203 21.8807 36.7415 22.3697 37.7194H18.8597V25.1463H10.4776V37.7194H0Z" fill="#00373A"/>
</svg>
