<svg width="21" height="8" viewBox="0 0 21 8" fill="none" xmlns="http://www.w3.org/2000/svg">
<path d="M16.5682 7.66292C16.427 7.52167 16.3592 7.35099 16.3648 7.15088C16.3709 6.95077 16.4446 6.7801 16.5859 6.63884L18.5811 4.64366H0.70626C0.506153 4.64366 0.338299 4.57586 0.202697 4.44026C0.0675657 4.30513 0 4.13751 0 3.9374C0 3.73729 0.0675657 3.56944 0.202697 3.43384C0.338299 3.2987 0.506153 3.23114 0.70626 3.23114H18.5811L16.5682 1.2183C16.427 1.07705 16.3563 0.909192 16.3563 0.714735C16.3563 0.520749 16.427 0.35313 16.5682 0.211878C16.7095 0.0706258 16.8773 0 17.0718 0C17.2658 0 17.4334 0.0706258 17.5746 0.211878L20.8058 3.44302C20.8764 3.51364 20.9265 3.59015 20.9562 3.67255C20.9854 3.75495 21 3.84323 21 3.9374C21 4.03157 20.9854 4.11985 20.9562 4.20225C20.9265 4.28464 20.8764 4.36116 20.8058 4.43178L17.557 7.68058C17.4275 7.81006 17.2658 7.8748 17.0718 7.8748C16.8773 7.8748 16.7095 7.80417 16.5682 7.66292Z" fill="#00373A"/>
</svg>
