<svg width="36" height="36" viewBox="0 0 36 36" fill="none" xmlns="http://www.w3.org/2000/svg">
<circle cx="18.0747" cy="17.9145" r="17.9145" fill="white" fill-opacity="0.15"/>
<path d="M18.0748 15.1051C17.2909 15.1051 16.5246 15.3147 15.8728 15.7074C15.221 16.1001 14.713 16.6583 14.413 17.3113C14.113 17.9643 14.0345 18.6829 14.1874 19.3762C14.3403 20.0694 14.7178 20.7062 15.2722 21.2061C15.8265 21.7059 16.5327 22.0463 17.3016 22.1842C18.0704 22.3221 18.8674 22.2513 19.5916 21.9808C20.3159 21.7103 20.9349 21.2522 21.3704 20.6645C21.8059 20.0768 22.0384 19.3858 22.0384 18.679C22.0384 17.7311 21.6208 16.8221 20.8775 16.1518C20.1342 15.4816 19.126 15.1051 18.0748 15.1051ZM18.0748 21.0615C17.5522 21.0615 17.0413 20.9218 16.6068 20.66C16.1723 20.3982 15.8336 20.0261 15.6336 19.5907C15.4336 19.1554 15.3813 18.6763 15.4832 18.2141C15.5852 17.752 15.8368 17.3274 16.2064 16.9942C16.5759 16.661 17.0468 16.4341 17.5593 16.3422C18.0719 16.2502 18.6032 16.2974 19.086 16.4777C19.5689 16.6581 19.9815 16.9635 20.2719 17.3553C20.5622 17.7471 20.7172 18.2077 20.7172 18.679C20.715 19.3103 20.4359 19.9151 19.9409 20.3615C19.4458 20.8079 18.775 21.0596 18.0748 21.0615ZM21.7081 11.2334H14.4416C13.2151 11.2334 12.039 11.6727 11.1718 12.4546C10.3046 13.2366 9.81738 14.2971 9.81738 15.4029V21.955C9.81738 23.0608 10.3046 24.1214 11.1718 24.9033C12.039 25.6852 13.2151 26.1245 14.4416 26.1245H21.7081C22.9345 26.1245 24.1107 25.6852 24.9779 24.9033C25.8451 24.1214 26.3323 23.0608 26.3323 21.955V15.4029C26.3323 14.2971 25.8451 13.2366 24.9779 12.4546C24.1107 11.6727 22.9345 11.2334 21.7081 11.2334ZM25.0111 21.955C25.0111 22.3461 24.9257 22.7334 24.7597 23.0947C24.5937 23.4561 24.3504 23.7844 24.0437 24.0609C23.737 24.3375 23.3728 24.5568 22.9721 24.7065C22.5714 24.8562 22.1419 24.9332 21.7081 24.9332H14.4416C14.0078 24.9332 13.5783 24.8562 13.1776 24.7065C12.7768 24.5568 12.4127 24.3375 12.106 24.0609C11.7993 23.7844 11.556 23.4561 11.39 23.0947C11.224 22.7334 11.1386 22.3461 11.1386 21.955V15.4029C11.1386 14.613 11.4866 13.8555 12.106 13.297C12.7254 12.7385 13.5655 12.4247 14.4416 12.4247H21.7081C22.1419 12.4247 22.5714 12.5017 22.9721 12.6514C23.3728 12.8011 23.737 13.0204 24.0437 13.297C24.3504 13.5735 24.5937 13.9019 24.7597 14.2632C24.9257 14.6245 25.0111 15.0118 25.0111 15.4029V21.955ZM23.3596 14.8073C23.3596 14.984 23.3015 15.1567 23.1926 15.3036C23.0837 15.4506 22.929 15.5651 22.7479 15.6327C22.5668 15.7003 22.3676 15.718 22.1754 15.6836C21.9832 15.6491 21.8066 15.564 21.668 15.439C21.5295 15.3141 21.4351 15.1549 21.3968 14.9816C21.3586 14.8083 21.3782 14.6286 21.4532 14.4654C21.5282 14.3021 21.6552 14.1626 21.8182 14.0644C21.9811 13.9662 22.1727 13.9138 22.3687 13.9138C22.6315 13.9138 22.8835 14.0079 23.0694 14.1755C23.2552 14.343 23.3596 14.5703 23.3596 14.8073Z" fill="white"/>
</svg>
