<svg width="37" height="37" viewBox="0 0 37 37" fill="none" xmlns="http://www.w3.org/2000/svg">
<circle cx="18.2358" cy="18.0874" r="17.9145" fill="white" fill-opacity="0.15"/>
<path d="M26 18.5532V23.729H22.9998V18.899C22.9998 17.6866 22.5658 16.8592 21.4794 16.8592C20.6506 16.8592 20.1564 17.4164 19.9394 17.9568C19.861 18.15 19.84 18.4188 19.84 18.6876V23.729H16.8384C16.8384 23.729 16.879 15.5502 16.8384 14.7032H19.84V15.9814L19.8204 16.0108H19.84V15.9828C20.239 15.3668 20.9502 14.4904 22.5448 14.4904C24.5188 14.4904 26 15.7812 26 18.5532ZM13.6982 10.3506C12.672 10.3506 12 11.0254 12 11.9102C12 12.7782 12.6524 13.4712 13.659 13.4712H13.6786C14.7258 13.4712 15.3768 12.7768 15.3768 11.9102C15.3572 11.0254 14.7258 10.3506 13.6982 10.3506ZM12.1778 23.729H15.1794V14.7032H12.1778V23.729Z" fill="white"/>
</svg>
