<svg width="248" height="85" viewBox="0 0 248 85" fill="none" xmlns="http://www.w3.org/2000/svg">
<path d="M39.8429 84.6441C16.9996 81.5452 0 63.5716 0 42.322C0 21.0725 16.9996 3.09889 39.8429 0V31.9629L35.0618 36.1242L28.6869 41.7022L35.0618 47.6344L39.8429 52.1499V74.8161C38.7804 74.6391 37.8065 74.3734 36.744 74.1078V53.1239L26.4734 43.5616L15.8486 52.9468L16.1142 53.5666C18.4163 58.879 22.2235 63.3945 27.1817 66.759V70.3006C16.8226 64.2799 10.4477 53.6551 10.4477 42.4106C10.4477 31.0775 16.8226 20.5412 27.1817 14.5205V18.0621C18.859 23.7287 13.8122 32.7597 13.7237 42.4991C13.7237 44.6241 13.9893 47.3688 14.432 48.6969L14.8747 50.2021L36.6555 30.9889V3.54159L35.4159 3.80721C32.9368 4.42699 30.3692 5.31239 27.8015 6.46341C12.9268 13.1039 3.36451 27.1817 3.36451 42.322C3.36451 46.2178 3.98429 50.025 5.22385 53.7437C5.66655 55.3374 6.28633 56.9311 7.08318 58.4363C11.2446 67.1132 18.5934 74.1078 27.89 78.2692C30.3692 79.4202 32.9368 80.3056 35.5045 80.9254C36.9211 81.2795 38.3377 81.5452 39.8429 81.8108V84.6441Z" fill="url(#paint0_linear_340_34)"/>
<path d="M46.9258 9.82792C54.9829 11.2446 62.2432 15.0518 67.6441 20.7183C73.3106 26.739 76.4095 34.442 76.4095 42.322C76.4095 53.6551 70.0347 64.1914 59.6755 70.2121V66.759C67.3785 61.6237 72.6023 53.0353 73.4877 44.3584L73.5763 43.296L50.2903 43.0303V81.191L51.5299 80.9254C54.186 80.3056 56.6652 79.4202 59.1443 78.3577C74.019 71.7172 83.6698 57.6394 83.6698 42.4106C83.6698 27.1817 74.019 13.1924 59.1443 6.46341C56.7537 5.40093 54.186 4.51553 51.5299 3.89575C50.0247 3.54159 48.431 3.18743 46.9258 3.01035V0C69.8576 3.01035 86.9458 21.0725 86.9458 42.322C86.9458 63.5716 69.8576 81.7222 46.9258 84.6441V9.82792ZM50.2903 39.7544H72.9565L72.7794 38.6034C71.5398 30.1921 66.4045 22.312 59.2328 17.5309C56.8422 15.9372 54.2746 14.6976 51.6184 13.8122L50.2903 13.3695V39.7544Z" fill="url(#paint1_linear_340_34)"/>
<path d="M115.81 7.52588L115.721 28.5984H113.596L113.685 9.47375H102.795L102.706 28.5984H100.581L100.67 7.52588H115.81Z" fill="#252525"/>
<path d="M129.977 19.6559C129.977 18.4163 129.623 17.5309 129.003 16.9997C128.383 16.3799 127.409 16.1143 126.258 16.1143C125.461 16.1143 124.665 16.2913 123.956 16.557C123.248 16.8226 122.628 17.2653 122.097 17.708L120.946 16.3799C121.566 15.8486 122.274 15.3174 123.248 14.9632C124.222 14.6091 125.284 14.432 126.435 14.432C127.232 14.432 127.852 14.5205 128.56 14.7862C129.18 14.9632 129.8 15.3174 130.243 15.7601C130.774 16.2028 131.128 16.734 131.394 17.3538C131.659 17.9736 131.836 18.7705 131.836 19.5673V25.6766C131.836 26.2078 131.836 26.739 131.925 27.3588C131.925 27.9786 132.013 28.4213 132.102 28.7755H130.243C130.154 28.4213 130.154 28.0671 130.066 27.713C130.066 27.3588 129.977 26.9161 129.977 26.562H129.888C129.269 27.5359 128.56 28.1557 127.764 28.5984C126.967 29.0411 125.993 29.2182 124.842 29.2182C124.31 29.2182 123.779 29.1296 123.159 28.9525C122.628 28.7755 122.097 28.5984 121.654 28.2442C121.212 27.8901 120.769 27.4474 120.503 26.9161C120.238 26.3849 120.061 25.6766 120.061 24.9682C120.061 23.9058 120.326 23.0204 120.857 22.4006C121.389 21.7808 122.097 21.3381 123.071 20.984C123.956 20.7183 125.019 20.4527 126.258 20.3642C127.409 20.2756 128.649 20.2756 129.977 20.2756V19.6559ZM129.446 21.7808C128.649 21.7808 127.763 21.7808 126.967 21.8694C126.081 21.9579 125.373 22.0464 124.665 22.3121C123.956 22.4891 123.425 22.8433 122.982 23.1974C122.54 23.5516 122.363 24.0828 122.363 24.7912C122.363 25.3224 122.451 25.6766 122.628 26.0307C122.805 26.3849 123.071 26.6505 123.425 26.8276C123.779 27.0047 124.133 27.1817 124.488 27.2703C124.842 27.3588 125.284 27.4474 125.639 27.4474C126.347 27.4474 126.967 27.3588 127.586 27.0932C128.118 26.8276 128.649 26.4734 129.003 26.1193C129.357 25.6766 129.711 25.2339 129.888 24.6141C130.066 24.0828 130.154 23.4631 130.154 22.8433V21.7808H129.446Z" fill="#252525"/>
<path d="M139.008 28.7754H136.972L137.06 14.7861H139.097V20.4527H147.065V14.7861H149.102L149.013 28.7754H146.977V22.1349H139.008V28.7754Z" fill="#252525"/>
<path d="M153.085 14.8746H155.122V16.9111C155.122 17.7964 155.122 18.5933 155.21 19.2131C155.299 19.8329 155.387 20.3641 155.653 20.8068C155.919 21.2495 156.361 21.5151 156.892 21.6922C157.424 21.8693 158.221 21.9578 159.283 21.9578H162.293V14.8746H164.33L164.241 28.8639H162.205V23.6401H159.106C157.778 23.6401 156.804 23.5515 155.919 23.2859C155.122 23.0203 154.502 22.6661 154.059 22.2234C153.617 21.7807 153.262 21.161 153.174 20.4526C152.997 19.7443 152.908 18.9475 152.908 18.0621L153.085 14.8746Z" fill="#252525"/>
<path d="M182.304 21.5152C182.304 21.6923 182.304 21.7808 182.304 21.9579C182.304 22.135 182.304 22.3121 182.304 22.4891L170.705 22.4006C170.705 23.1089 170.882 23.7287 171.148 24.3485C171.414 24.9682 171.768 25.4995 172.211 25.9422C172.653 26.3849 173.184 26.739 173.804 27.0047C174.424 27.2703 175.044 27.4474 175.841 27.4474C176.903 27.4474 177.789 27.1817 178.585 26.739C179.382 26.2963 179.913 25.6766 180.356 25.0568L181.861 26.2963C181.065 27.3588 180.091 28.0671 179.117 28.5098C178.143 28.9525 176.992 29.2182 175.841 29.2182C174.778 29.2182 173.893 29.0411 173.007 28.6869C172.122 28.3328 171.325 27.8015 170.705 27.1817C170.086 26.562 169.554 25.7651 169.2 24.8797C168.846 23.9943 168.669 23.0204 168.669 21.9579C168.669 20.8954 168.846 19.9215 169.2 19.0361C169.554 18.1507 170.086 17.3538 170.705 16.734C171.325 16.1143 172.122 15.583 172.919 15.2289C173.804 14.8747 174.69 14.6976 175.664 14.6976C176.726 14.6976 177.7 14.8747 178.585 15.2289C179.382 15.583 180.091 16.1143 180.622 16.734C181.153 17.3538 181.596 18.0621 181.861 18.9475C182.216 19.6559 182.304 20.5413 182.304 21.5152ZM180.268 20.8954C180.179 19.5673 179.825 18.5048 179.028 17.6194C178.231 16.734 177.169 16.2913 175.664 16.2913C174.955 16.2913 174.335 16.3799 173.804 16.6455C173.184 16.9111 172.742 17.2653 172.299 17.6194C171.856 18.0621 171.502 18.5048 171.237 19.0361C170.971 19.5673 170.794 20.1871 170.794 20.7183L180.268 20.8954Z" fill="#252525"/>
<path d="M196.116 28.9525L191.512 17.4423L186.643 28.9525H184.518L190.715 15.0518H192.486L198.153 29.041L196.116 28.9525Z" fill="#252525"/>
<path d="M221.173 22.1349C221.173 23.1974 220.996 24.1714 220.642 25.0567C220.288 25.9421 219.756 26.739 219.137 27.3588C218.517 27.9786 217.72 28.5098 216.746 28.864C215.861 29.2181 214.798 29.3952 213.736 29.3952C212.673 29.3952 211.699 29.2181 210.814 28.864C209.929 28.5098 209.132 28.0671 208.512 27.3588C207.892 26.739 207.361 26.0307 207.007 25.1453C206.653 24.2599 206.387 23.3745 206.387 22.4006H203.465V29.041H201.429L201.517 15.0518H203.554V20.7183H206.564C206.741 19.8329 207.007 19.036 207.449 18.3277C207.892 17.6194 208.423 16.9996 209.043 16.4684C209.663 15.9371 210.46 15.4945 211.257 15.2288C212.053 14.9632 213.027 14.7861 213.913 14.7861C214.975 14.7861 216.038 14.9632 216.923 15.3174C217.809 15.6715 218.605 16.2028 219.314 16.8225C219.934 17.4423 220.465 18.2392 220.819 19.1246C220.996 20.0985 221.173 21.0725 221.173 22.1349ZM219.048 22.1349C219.048 21.3381 218.96 20.6298 218.694 19.9214C218.428 19.2131 218.074 18.6819 217.631 18.1506C217.189 17.6194 216.658 17.2652 215.949 16.9111C215.329 16.6455 214.533 16.4684 213.736 16.4684C212.939 16.4684 212.231 16.6455 211.522 16.9111C210.902 17.1767 210.283 17.6194 209.84 18.1506C209.397 18.6819 209.043 19.2131 208.778 19.9214C208.512 20.6298 208.423 21.3381 208.423 22.1349C208.423 22.9318 208.512 23.6401 208.778 24.3484C209.043 25.0567 209.397 25.588 209.84 26.1192C210.283 26.6505 210.814 27.0046 211.522 27.3588C212.142 27.6244 212.939 27.8015 213.736 27.8015C214.533 27.8015 215.329 27.6244 215.949 27.3588C216.569 27.0932 217.189 26.6505 217.631 26.2078C218.074 25.6765 218.428 25.1453 218.694 24.437C218.871 23.6401 219.048 22.8433 219.048 22.1349Z" fill="#252525"/>
<path d="M227.37 29.1295H225.334L225.423 15.1403H234.099V16.8225H227.459L227.37 29.1295Z" fill="#252525"/>
<path d="M245.875 20.1871C245.875 18.9475 245.521 18.0621 244.902 17.5309C244.282 16.9111 243.308 16.6455 242.157 16.6455C241.36 16.6455 240.563 16.8226 239.855 17.0882C239.146 17.3538 238.527 17.7965 237.995 18.2392L236.844 16.9111C237.464 16.3799 238.172 15.8487 239.146 15.4945C240.12 15.1403 241.183 14.9633 242.334 14.9633C243.131 14.9633 243.75 15.0518 244.459 15.3174C245.079 15.4945 245.698 15.8487 246.141 16.2914C246.672 16.7341 247.026 17.2653 247.292 17.8851C247.558 18.5048 247.735 19.3017 247.735 20.0986V26.2078C247.735 26.7391 247.735 27.2703 247.823 27.8901C247.823 28.5098 247.912 28.9525 248 29.3067H246.141C246.053 28.9525 246.053 28.5984 245.964 28.2442C245.964 27.8901 245.875 27.4474 245.875 27.0932H245.787C245.167 28.0671 244.459 28.6869 243.662 29.1296C242.865 29.5723 241.891 29.7494 240.74 29.7494C240.209 29.7494 239.678 29.6609 239.058 29.4838C238.527 29.3067 237.995 29.1296 237.553 28.7755C237.11 28.4213 236.667 27.9786 236.402 27.4474C236.136 26.9161 235.959 26.2078 235.959 25.4995C235.959 24.437 236.225 23.5516 236.756 22.9318C237.287 22.3121 237.995 21.8694 238.969 21.5152C239.855 21.2496 240.917 20.984 242.157 20.8954C243.308 20.8069 244.547 20.8069 245.875 20.8069V20.1871ZM245.256 22.2235C244.459 22.2235 243.573 22.2235 242.777 22.3121C241.891 22.4006 241.183 22.4891 240.475 22.7548C239.766 22.9318 239.235 23.286 238.792 23.6402C238.35 23.9943 238.172 24.5256 238.172 25.2339C238.172 25.7651 238.261 26.1193 238.438 26.4734C238.615 26.8276 238.881 27.0932 239.235 27.2703C239.589 27.4474 239.943 27.6244 240.297 27.713C240.652 27.8015 241.094 27.8901 241.448 27.8901C242.157 27.8901 242.777 27.8015 243.396 27.5359C243.928 27.2703 244.459 26.9161 244.813 26.562C245.167 26.1193 245.521 25.6766 245.698 25.0568C245.875 24.5256 245.964 23.9058 245.964 23.286V22.2235H245.256Z" fill="#252525"/>
<path d="M100.404 55.6915L100.493 34.619H102.618V43.5615C103.149 43.5615 103.68 43.5615 104.212 43.6501C104.743 43.6501 105.185 43.7386 105.717 43.8272L113.774 34.7076H116.164L108.019 44.3584C110.498 45.1553 112.446 46.4834 113.774 48.4312C115.102 50.3791 115.987 52.8582 116.43 55.8686H114.039C113.685 54.0978 113.243 52.5041 112.711 51.176C112.092 49.8479 111.383 48.7854 110.498 47.9885C109.612 47.1917 108.461 46.5719 107.222 46.1292C105.894 45.775 104.389 45.598 102.706 45.598V55.78L100.404 55.6915Z" fill="#252525"/>
<path d="M129.711 46.8376C129.711 45.5981 129.357 44.7127 128.737 44.1814C128.118 43.5616 127.144 43.296 125.993 43.296C125.196 43.296 124.399 43.4731 123.691 43.7387C122.982 44.0043 122.363 44.447 121.831 44.8897L120.68 43.5616C121.3 43.0304 122.008 42.4992 122.982 42.145C123.956 41.7908 125.019 41.6138 126.17 41.6138C126.967 41.6138 127.586 41.7023 128.295 41.9679C128.915 42.145 129.534 42.4992 129.977 42.9419C130.508 43.3846 130.862 43.9158 131.128 44.5356C131.394 45.1554 131.571 45.9522 131.571 46.7491V52.8583C131.571 53.3896 131.571 53.9208 131.659 54.5406C131.659 55.1604 131.748 55.6031 131.836 55.9572H129.977C129.888 55.6031 129.888 55.2489 129.8 54.8947C129.8 54.5406 129.711 54.0979 129.711 53.7437H129.623C129.003 54.7177 128.295 55.3374 127.498 55.7801C126.701 56.2228 125.727 56.3999 124.576 56.3999C124.045 56.3999 123.514 56.3114 122.894 56.1343C122.363 55.9572 121.831 55.7801 121.389 55.426C120.946 55.0718 120.503 54.6291 120.238 54.0979C119.972 53.5666 119.795 52.8583 119.795 52.15C119.795 51.0875 120.061 50.2021 120.592 49.5824C121.123 48.9626 121.831 48.5199 122.805 48.1657C123.691 47.9001 124.753 47.6345 125.993 47.5459C127.144 47.4574 128.383 47.4574 129.711 47.4574V46.8376ZM129.092 48.874C128.295 48.874 127.409 48.874 126.612 48.9626C125.727 49.0511 125.019 49.1397 124.31 49.4053C123.602 49.5824 123.071 49.9365 122.628 50.2907C122.185 50.6448 122.008 51.1761 122.008 51.8844C122.008 52.4156 122.097 52.7698 122.274 53.1239C122.451 53.4781 122.717 53.7437 123.071 53.9208C123.425 54.0979 123.779 54.275 124.133 54.3635C124.488 54.452 124.93 54.5406 125.284 54.5406C125.993 54.5406 126.612 54.452 127.232 54.1864C127.763 53.9208 128.295 53.5666 128.649 53.2125C129.003 52.7698 129.357 52.3271 129.534 51.7073C129.711 51.1761 129.8 50.5563 129.8 49.9365V48.874H129.092Z" fill="#252525"/>
<path d="M134.492 41.8793L146.71 41.9678V43.6501H141.398L141.309 55.8686H139.273L139.362 43.6501H134.403L134.492 41.8793Z" fill="#252525"/>
<path d="M162.382 48.5198C162.382 48.6969 162.382 48.7855 162.382 48.9625C162.382 49.1396 162.382 49.3167 162.382 49.4938L150.783 49.4052C150.783 50.1136 150.961 50.7333 151.226 51.3531C151.492 51.9729 151.846 52.5041 152.289 52.9468C152.731 53.3895 153.263 53.7437 153.882 54.0093C154.502 54.2749 155.122 54.452 155.919 54.452C156.981 54.452 157.867 54.1864 158.664 53.7437C159.46 53.301 159.992 52.6812 160.434 52.0614L161.939 53.301C161.143 54.3635 160.169 55.0718 159.195 55.5145C158.221 55.9572 157.07 56.2228 155.919 56.2228C154.856 56.2228 153.971 56.0457 153.086 55.6916C152.2 55.3374 151.403 54.8062 150.783 54.1864C150.164 53.5666 149.632 52.7697 149.278 51.8843C148.924 50.999 148.747 50.025 148.747 48.9625C148.747 47.9001 148.924 46.9261 149.278 46.0407C149.632 45.1553 150.164 44.3585 150.783 43.7387C151.403 43.1189 152.2 42.5877 152.997 42.2335C153.882 41.8794 154.768 41.7023 155.742 41.7023C156.804 41.7023 157.778 41.8794 158.664 42.2335C159.46 42.5877 160.169 43.1189 160.7 43.7387C161.231 44.3585 161.674 45.0668 161.939 45.9522C162.294 46.749 162.382 47.6344 162.382 48.5198ZM160.346 47.9001C160.257 46.572 159.903 45.5095 159.106 44.6241C158.309 43.7387 157.247 43.296 155.742 43.296C155.033 43.296 154.414 43.3845 153.882 43.6501C153.263 43.9158 152.82 44.2699 152.377 44.6241C151.935 45.0668 151.58 45.5095 151.315 46.0407C151.049 46.572 150.872 47.1917 150.872 47.723L160.346 47.9001Z" fill="#252525"/>
<path d="M168.668 63.1289H166.632L166.72 42.0564H168.757V44.447H168.845C169.465 43.5616 170.173 42.8533 171.147 42.4106C172.121 41.9679 173.095 41.7023 174.069 41.7023C175.132 41.7023 176.106 41.8794 176.991 42.322C177.876 42.6762 178.585 43.2074 179.293 43.9158C179.913 44.5355 180.356 45.3324 180.71 46.2178C181.064 47.1032 181.241 48.0771 181.241 49.1396C181.241 50.2021 181.064 51.176 180.71 52.0614C180.356 52.9468 179.913 53.7437 179.204 54.3635C178.585 54.9832 177.788 55.5145 176.902 55.8686C176.017 56.2228 175.043 56.3999 173.892 56.3999C172.918 56.3999 171.944 56.1343 170.97 55.6916C169.996 55.2489 169.199 54.5405 168.668 53.6551H168.58L168.668 63.1289ZM179.204 49.0511C179.204 48.2542 179.116 47.5459 178.85 46.8376C178.585 46.1293 178.231 45.598 177.788 45.0668C177.345 44.5355 176.814 44.1814 176.106 43.8272C175.486 43.5616 174.689 43.3845 173.892 43.3845C173.095 43.3845 172.387 43.5616 171.767 43.8272C171.147 44.0928 170.528 44.5355 170.085 44.9782C169.642 45.5095 169.199 46.0407 168.934 46.749C168.668 47.4574 168.491 48.1657 168.491 48.9625C168.491 49.7594 168.58 50.4677 168.845 51.176C169.111 51.8843 169.465 52.4156 169.996 52.9468C170.439 53.4781 171.059 53.8322 171.679 54.0978C172.298 54.3635 173.007 54.5405 173.804 54.5405C174.6 54.5405 175.397 54.3635 176.017 54.0978C176.637 53.8322 177.257 53.3895 177.699 52.9468C178.142 52.4156 178.496 51.8843 178.762 51.176C179.027 50.5563 179.204 49.8479 179.204 49.0511Z" fill="#252525"/>
<path d="M196.205 44.7126L187.616 56.0457H185.491L185.58 42.0564H187.705V53.0353L196.293 42.1449H198.418L198.329 56.1342H196.205V44.7126Z" fill="#252525"/>
<path d="M205.412 56.1342H203.376L203.465 42.1449H205.501V47.8114H213.47V42.1449H215.506L215.417 56.1342H213.381V49.4937H205.412V56.1342Z" fill="#252525"/>
<path d="M229.407 47.1917C229.407 45.9522 229.053 45.0668 228.433 44.5355C227.813 43.9158 226.839 43.6501 225.688 43.6501C224.891 43.6501 224.094 43.8272 223.386 44.0928C222.678 44.3585 222.058 44.8012 221.527 45.2439L220.376 43.9158C220.995 43.3845 221.704 42.8533 222.678 42.4991C223.652 42.145 224.714 41.9679 225.865 41.9679C226.662 41.9679 227.282 42.0564 227.99 42.3221C228.61 42.4991 229.23 42.8533 229.672 43.296C230.204 43.7387 230.558 44.2699 230.823 44.8897C231.089 45.5095 231.266 46.3063 231.266 47.1032V53.2124C231.266 53.7437 231.266 54.2749 231.355 54.8947C231.355 55.5145 231.443 55.9572 231.532 56.3999H229.672C229.584 56.0457 229.584 55.6916 229.495 55.3374C229.495 54.9832 229.407 54.5405 229.407 54.1864H229.318C228.698 55.1603 227.99 55.7801 227.193 56.2228C226.396 56.6655 225.422 56.8426 224.271 56.8426C223.74 56.8426 223.209 56.754 222.589 56.577C222.058 56.3999 221.527 56.2228 221.084 55.8686C220.641 55.5145 220.199 55.0718 219.933 54.5405C219.667 54.0093 219.49 53.301 219.49 52.5927C219.49 51.5302 219.756 50.6448 220.287 50.025C220.818 49.4052 221.527 48.9625 222.501 48.6084C223.386 48.3428 224.448 48.0771 225.688 47.9886C226.839 47.9001 228.079 47.9001 229.407 47.9001V47.1917ZM228.875 49.2282C228.079 49.2282 227.193 49.2282 226.396 49.3167C225.511 49.4052 224.803 49.4938 224.094 49.7594C223.386 49.9365 222.855 50.2906 222.412 50.6448C221.969 50.999 221.792 51.5302 221.792 52.2385C221.792 52.7698 221.881 53.1239 222.058 53.4781C222.235 53.8322 222.501 54.0978 222.855 54.2749C223.209 54.452 223.563 54.6291 223.917 54.7176C224.271 54.8062 224.714 54.8947 225.068 54.8947C225.777 54.8947 226.396 54.8062 227.016 54.5405C227.547 54.2749 228.079 53.9208 228.433 53.5666C228.787 53.1239 229.141 52.6812 229.318 52.0614C229.495 51.5302 229.584 50.9104 229.584 50.2906V49.2282H228.875Z" fill="#252525"/>
<path d="M101.379 75.613H100.493L103.946 67.7329H104.743L108.108 75.613H107.222L106.337 73.5765H102.264L101.379 75.613ZM102.53 72.7797H105.983L104.212 68.6183L102.53 72.7797Z" fill="#C5846B"/>
<path d="M112.712 75.613V77.2067H111.915V74.9046H112.889L115.545 67.7329H116.342L118.998 74.9046H119.972V77.2067H119.175V75.613H112.712ZM113.686 74.9046H118.201L115.988 68.6183L113.686 74.9046Z" fill="#C5846B"/>
<path d="M124.487 67.7329H126.878C127.143 67.7329 127.498 67.7329 127.763 67.8214C128.029 67.91 128.383 67.9985 128.56 68.1756C128.826 68.3527 129.003 68.5298 129.18 68.7954C129.357 69.061 129.446 69.4152 129.446 69.7693C129.446 70.212 129.357 70.5662 129.091 70.8318C128.826 71.0974 128.472 71.363 128.029 71.4516C128.56 71.5401 129.003 71.7172 129.268 72.0714C129.623 72.4255 129.8 72.8682 129.8 73.488C129.8 73.8422 129.711 74.1078 129.623 74.3734C129.446 74.639 129.268 74.9046 129.003 75.0817C128.737 75.2588 128.472 75.4359 128.117 75.5244C127.763 75.613 127.321 75.7015 126.878 75.7015H124.576V67.7329H124.487ZM125.284 71.186H126.878C127.055 71.186 127.232 71.186 127.498 71.0974C127.675 71.0089 127.852 71.0089 128.029 70.8318C128.206 70.7433 128.295 70.5662 128.383 70.3891C128.472 70.212 128.56 69.9464 128.56 69.7693C128.56 69.5037 128.472 69.3266 128.383 69.1495C128.295 68.9725 128.117 68.7954 127.94 68.7068C127.763 68.6183 127.586 68.5298 127.321 68.4412C127.055 68.3527 126.878 68.3527 126.612 68.3527H125.196V71.186H125.284ZM125.284 74.9046H126.789C127.055 74.9046 127.321 74.9046 127.586 74.8161C127.852 74.7276 128.117 74.639 128.295 74.5505C128.472 74.4619 128.649 74.2849 128.737 74.1078C128.826 73.9307 128.914 73.6651 128.914 73.3995C128.914 72.8682 128.737 72.5141 128.383 72.2484C128.029 71.9828 127.498 71.8943 126.878 71.8943H125.196V74.9046H125.284Z" fill="#C5846B"/>
<path d="M142.727 71.6287C142.727 72.2485 142.638 72.7797 142.373 73.311C142.196 73.8422 141.842 74.2849 141.487 74.6391C141.133 74.9932 140.691 75.2588 140.159 75.5245C139.628 75.7015 139.097 75.8786 138.566 75.8786C137.946 75.8786 137.415 75.7901 136.972 75.5245C136.441 75.3474 135.998 74.9932 135.644 74.6391C135.29 74.2849 135.024 73.8422 134.758 73.311C134.581 72.7797 134.404 72.2485 134.404 71.6287C134.404 71.0089 134.493 70.4777 134.758 69.9464C134.936 69.4152 135.29 68.9725 135.644 68.6183C135.998 68.2642 136.441 67.9986 136.972 67.7329C137.503 67.5559 138.034 67.3788 138.566 67.3788C139.185 67.3788 139.717 67.4673 140.159 67.7329C140.691 67.91 141.133 68.2642 141.487 68.6183C141.842 68.9725 142.107 69.4152 142.373 69.9464C142.638 70.4777 142.727 71.0975 142.727 71.6287ZM141.93 71.7172C141.93 71.2745 141.842 70.8318 141.665 70.3891C141.487 69.9464 141.31 69.5923 141.045 69.3267C140.779 68.9725 140.425 68.7954 139.982 68.5298C139.54 68.3527 139.097 68.2642 138.654 68.2642C138.123 68.2642 137.68 68.3527 137.326 68.5298C136.883 68.7069 136.618 68.9725 136.264 69.3267C135.998 69.6808 135.732 70.035 135.644 70.3891C135.555 70.7433 135.378 71.2745 135.378 71.7172C135.378 72.1599 135.467 72.6026 135.644 73.0453C135.821 73.488 135.998 73.8422 136.264 74.1078C136.529 74.462 136.883 74.639 137.326 74.8161C137.769 74.9932 138.212 75.0818 138.654 75.0818C139.185 75.0818 139.628 74.9932 139.982 74.8161C140.425 74.639 140.691 74.3734 141.045 74.1078C141.31 73.7536 141.576 73.3995 141.665 73.0453C141.842 72.6026 141.93 72.1599 141.93 71.7172Z" fill="#C5846B"/>
<path d="M147.773 75.613V67.7329H148.57V71.0974C148.747 71.0974 149.013 71.0974 149.19 71.0974C149.367 71.0974 149.544 71.0974 149.721 71.186L152.732 67.7329H153.617L150.607 71.363C151.581 71.6287 152.289 72.1599 152.732 72.8682C153.263 73.5765 153.617 74.5505 153.794 75.613H152.909C152.82 74.9046 152.643 74.3734 152.378 73.8422C152.2 73.3109 151.846 72.9568 151.492 72.6026C151.138 72.337 150.695 72.0714 150.253 71.8943C149.81 71.7172 149.19 71.7172 148.57 71.7172V75.5244H147.773V75.613Z" fill="#C5846B"/>
<path d="M158.753 75.613H157.867L161.32 67.7329H162.117L165.482 75.613H164.596L163.711 73.5765H159.638L158.753 75.613ZM159.904 72.7797H163.357L161.586 68.6183L159.904 72.7797Z" fill="#C5846B"/>
<path d="M172.564 75.613H171.768V68.4412H169.111V67.7329H175.221V68.4412H172.564V75.613Z" fill="#C5846B"/>
<defs>
<linearGradient id="paint0_linear_340_34" x1="-10.4904" y1="7.25008" x2="-1.46648" y2="14.3123" gradientUnits="userSpaceOnUse">
<stop stop-color="#F0E5DE"/>
<stop offset="0.9994" stop-color="#C5846B"/>
</linearGradient>
<linearGradient id="paint1_linear_340_34" x1="-3.59936" y1="-1.55556" x2="5.42452" y2="5.50664" gradientUnits="userSpaceOnUse">
<stop stop-color="#F0E5DE"/>
<stop offset="0.9994" stop-color="#C5846B"/>
</linearGradient>
</defs>
</svg>
