<svg width="15" height="15" viewBox="0 0 15 15" fill="none" xmlns="http://www.w3.org/2000/svg">
<path d="M0.318022 1.13108C0.318002 0.899252 0.39526 0.706057 0.549798 0.551492C0.704335 0.396928 0.897517 0.319636 1.12934 0.319616L4.259 0.319345C4.43931 0.319329 4.59722 0.377272 4.73272 0.493173C4.8677 0.609075 4.95452 0.757179 4.99317 0.937485L5.53433 3.60344C5.56011 3.78375 5.54415 3.96741 5.48647 4.15442C5.42827 4.34092 5.34122 4.49213 5.22532 4.60805L3.4095 6.42418C4.00203 7.40295 4.70403 8.298 5.51549 9.10932C6.32695 9.92064 7.19636 10.5967 8.12371 11.1376L10.0168 9.2828C10.1327 9.16688 10.2648 9.09268 10.4132 9.06021C10.5611 9.02826 10.7251 9.02516 10.9054 9.0509L13.6101 9.55295C13.7904 9.5787 13.9386 9.6624 14.0545 9.80406C14.1704 9.94572 14.2284 10.1067 14.2284 10.287L14.2287 13.4167C14.2287 13.6485 14.1514 13.8417 13.9969 13.9963C13.8424 14.1508 13.6492 14.2281 13.4174 14.2281C11.7559 14.2283 10.1365 13.858 8.55895 13.1173C6.98092 12.3772 5.58343 11.3985 4.3665 10.1812C3.14904 8.96451 2.1701 7.56745 1.42966 5.99007C0.688713 4.41216 0.318166 2.7925 0.318022 1.13108Z" fill="white"/>
</svg>
