<svg width="25" height="25" viewBox="0 0 25 25" fill="none" xmlns="http://www.w3.org/2000/svg">
<path d="M3.00009 4.0518C3.00006 3.7518 3.10004 3.50179 3.30003 3.30178C3.50001 3.10176 3.75 3.00174 4.05 3.00171L8.1 3.00136C8.33333 3.00134 8.53767 3.07632 8.71302 3.22631C8.8877 3.37629 9.00005 3.56795 9.05007 3.80128L9.75037 7.25122C9.78372 7.48455 9.76308 7.72222 9.68843 7.96422C9.61312 8.20556 9.50047 8.40124 9.35048 8.55125L7.00068 10.9015C7.76746 12.1681 8.67589 13.3263 9.72599 14.3762C10.7761 15.4261 11.9012 16.301 13.1012 17.0009L15.551 14.6007C15.701 14.4507 15.872 14.3547 16.064 14.3127C16.2553 14.2713 16.4676 14.2673 16.701 14.3006L20.201 14.9503C20.4344 14.9836 20.626 15.0919 20.7761 15.2753C20.9261 15.4586 21.0011 15.6669 21.0011 15.9002L21.0015 19.9502C21.0015 20.2502 20.9015 20.5003 20.7015 20.7003C20.5016 20.9003 20.2516 21.0003 19.9516 21.0003C17.8016 21.0005 15.7059 20.5214 13.6644 19.5629C11.6224 18.6051 9.81391 17.3385 8.2391 15.7633C6.66364 14.1888 5.39681 12.3809 4.43864 10.3397C3.47979 8.29776 3.00028 6.2018 3.00009 4.0518Z" fill="white"/>
</svg>
