<svg id="visual" viewBox="0 0 1200 628" width="1200" height="628" xmlns="http://www.w3.org/2000/svg" xmlns:xlink="http://www.w3.org/1999/xlink" version="1.1"><rect x="0" y="0" width="1200" height="628" fill="#F3F3F3"></rect><path d="M0 100L50 92.7C100 85.3 200 70.7 300 70.7C400 70.7 500 85.3 600 94.3C700 103.3 800 106.7 900 107.5C1000 108.3 1100 106.7 1150 105.8L1200 105L1200 0L1150 0C1100 0 1000 0 900 0C800 0 700 0 600 0C500 0 400 0 300 0C200 0 100 0 50 0L0 0Z" fill="#00373A" stroke-linecap="round" stroke-linejoin="miter"></path></svg>