<svg width="87" height="85" viewBox="0 0 87 85" fill="none" xmlns="http://www.w3.org/2000/svg">
<path d="M39.8429 84.6441C16.9996 81.5452 0 63.5716 0 42.322C0 21.0725 16.9996 3.09889 39.8429 0V31.9629L35.0618 36.1242L28.6869 41.7022L35.0618 47.6344L39.8429 52.1499V74.8161C38.7804 74.6391 37.8065 74.3734 36.744 74.1078V53.1239L26.4734 43.5616L15.8486 52.9468L16.1142 53.5666C18.4163 58.879 22.2235 63.3945 27.1817 66.759V70.3006C16.8226 64.2799 10.4477 53.6551 10.4477 42.4106C10.4477 31.0775 16.8226 20.5412 27.1817 14.5205V18.0621C18.859 23.7287 13.8122 32.7597 13.7237 42.4991C13.7237 44.6241 13.9893 47.3688 14.432 48.6969L14.8747 50.2021L36.6555 30.9889V3.54159L35.4159 3.80721C32.9368 4.42699 30.3692 5.31239 27.8015 6.46341C12.9268 13.1039 3.36451 27.1817 3.36451 42.322C3.36451 46.2178 3.98429 50.025 5.22385 53.7437C5.66655 55.3374 6.28633 56.9311 7.08318 58.4363C11.2446 67.1132 18.5934 74.1078 27.89 78.2692C30.3692 79.4202 32.9368 80.3056 35.5045 80.9254C36.9211 81.2795 38.3377 81.5452 39.8429 81.8108V84.6441Z" fill="url(#paint0_linear_340_35)"/>
<path d="M46.9258 9.82792C54.9829 11.2446 62.2432 15.0518 67.6441 20.7183C73.3106 26.739 76.4095 34.442 76.4095 42.322C76.4095 53.6551 70.0347 64.1914 59.6755 70.2121V66.759C67.3785 61.6237 72.6023 53.0353 73.4877 44.3584L73.5763 43.296L50.2903 43.0303V81.191L51.5299 80.9254C54.186 80.3056 56.6652 79.4202 59.1443 78.3577C74.019 71.7172 83.6698 57.6394 83.6698 42.4106C83.6698 27.1817 74.019 13.1924 59.1443 6.46341C56.7537 5.40093 54.186 4.51553 51.5299 3.89575C50.0247 3.54159 48.431 3.18743 46.9258 3.01035V0C69.8576 3.01035 86.9458 21.0725 86.9458 42.322C86.9458 63.5716 69.8576 81.7222 46.9258 84.6441V9.82792ZM50.2903 39.7544H72.9565L72.7794 38.6034C71.5398 30.1921 66.4045 22.312 59.2328 17.5309C56.8422 15.9372 54.2746 14.6976 51.6184 13.8122L50.2903 13.3695V39.7544Z" fill="url(#paint1_linear_340_35)"/>
<defs>
<linearGradient id="paint0_linear_340_35" x1="-10.4904" y1="7.25008" x2="-1.46648" y2="14.3123" gradientUnits="userSpaceOnUse">
<stop stop-color="#F0E5DE"/>
<stop offset="0.9994" stop-color="#C5846B"/>
</linearGradient>
<linearGradient id="paint1_linear_340_35" x1="-3.59936" y1="-1.55556" x2="5.42452" y2="5.50664" gradientUnits="userSpaceOnUse">
<stop stop-color="#F0E5DE"/>
<stop offset="0.9994" stop-color="#C5846B"/>
</linearGradient>
</defs>
</svg>
