<svg width="42" height="42" viewBox="0 0 42 42" fill="none" xmlns="http://www.w3.org/2000/svg">
<path d="M0.61112 38.4064L20.6684 18.3491L17.7434 15.3823L16.2391 16.8657C16.0458 17.0594 15.8162 17.2131 15.5634 17.3179C15.3107 17.4228 15.0397 17.4767 14.7661 17.4767C14.4925 17.4767 14.2215 17.4228 13.9688 17.3179C13.716 17.2131 13.4864 17.0594 13.2932 16.8657L11.8098 15.3823C11.6161 15.1891 11.4624 14.9595 11.3576 14.7067C11.2527 14.454 11.1988 14.183 11.1988 13.9094C11.1988 13.6358 11.2527 13.3648 11.3576 13.1121C11.4624 12.8593 11.6161 12.6297 11.8098 12.4364L23.6352 0.611003C23.8285 0.417318 24.0581 0.263655 24.3108 0.158811C24.5636 0.0539667 24.8345 0 25.1081 0C25.3818 0 25.6527 0.0539667 25.9055 0.158811C26.1582 0.263655 26.3878 0.417318 26.5811 0.611003L28.0645 2.0944C28.8793 2.90923 28.8793 4.22549 28.0645 5.04032L26.5811 6.48193L29.5479 9.46963C29.7412 9.27594 29.9708 9.12228 30.2235 9.01744C30.4763 8.91259 30.7472 8.85863 31.0209 8.85863C31.2945 8.85863 31.5654 8.91259 31.8182 9.01744C32.0709 9.12228 32.3005 9.27594 32.4938 9.46963C33.3086 10.2845 33.3086 11.6216 32.4938 12.4364L35.4397 15.3823L36.9231 13.8989C37.7379 13.0841 39.0751 13.0841 39.8899 13.8989L41.3524 15.3823C42.1673 16.1972 42.1673 17.5343 41.3524 18.3491L29.5479 30.1537C28.7331 30.9685 27.3959 30.9685 26.5811 30.1537L25.1186 28.6912C24.9202 28.4984 24.7625 28.2678 24.6548 28.013C24.5471 27.7582 24.4916 27.4844 24.4916 27.2078C24.4916 26.9312 24.5471 26.6573 24.6548 26.4025C24.7625 26.1477 24.9202 25.9171 25.1186 25.7244L26.5811 24.241L23.6352 21.2951L3.55703 41.3732C3.36374 41.5669 3.13415 41.7206 2.8814 41.8254C2.62865 41.9302 2.35771 41.9842 2.08408 41.9842C1.81044 41.9842 1.5395 41.9302 1.28675 41.8254C1.034 41.7206 0.804408 41.5669 0.61112 41.3732C-0.203707 40.5584 -0.203707 39.2212 0.61112 38.4064ZM37.5917 35.7321C38.6999 35.7321 39.7628 36.1724 40.5464 36.956C41.3301 37.7396 41.7703 38.8025 41.7703 39.9107V42H20.8773V39.9107C20.8773 38.8025 21.3176 37.7396 22.1012 36.956C22.8848 36.1724 23.9477 35.7321 25.0559 35.7321H37.5917Z" fill="white" fill-opacity="0.5"/>
</svg>
