<svg width="44" height="32" viewBox="0 0 44 32" fill="none" xmlns="http://www.w3.org/2000/svg">
<path d="M22.7503 3.97568C22.7503 1.77978 24.511 0.019104 26.7069 0.019104H33.6309C35.8071 0.019104 37.5875 1.79957 37.5875 3.97568V8.24879C35.2927 9.05989 33.6309 11.236 33.6309 13.8078V17.8237H22.7503V3.97568ZM9.89145 13.788V17.8237H20.772V3.97568C20.772 1.77978 19.0114 0.019104 16.8155 0.019104H9.89145C7.71533 0.019104 5.93487 1.79957 5.93487 3.97568V8.22901C8.22969 9.04011 9.89145 11.236 9.89145 13.788ZM38.8932 9.9699C36.9545 10.2864 35.6092 12.1262 35.6092 14.1045V19.802H7.91316V13.8671C7.91316 12.8178 7.49631 11.8114 6.75431 11.0694C6.0123 10.3274 5.00593 9.91056 3.95658 9.91056C2.90723 9.91056 1.90086 10.3274 1.15886 11.0694C0.416853 11.8114 0 12.8178 0 13.8671V23.7586C0 25.9347 1.78046 27.7152 3.95658 27.7152V31.6717H7.91316V27.7152H35.6092V31.6717H39.5658V27.7152C41.7419 27.7152 43.5224 25.9347 43.5224 23.7586V13.8671C43.5224 11.4734 41.3661 9.55446 38.8932 9.9699Z" fill="#00373A"/>
</svg>
