<svg width="46" height="44" viewBox="0 0 46 44" fill="none" xmlns="http://www.w3.org/2000/svg">
<path d="M41.9465 8.64687C37.7151 4.39243 31.3909 3.51854 26.2626 5.95622L24.0549 3.74851C23.8421 3.53532 23.5894 3.36618 23.3112 3.25078C23.033 3.13538 22.7348 3.07598 22.4336 3.07598C22.1324 3.07598 21.8341 3.13538 21.5559 3.25078C21.2777 3.36618 21.025 3.53532 20.8123 3.74851L20.6283 3.95548C20.3063 1.72477 18.3976 0 16.0979 0C13.5682 0 11.4985 2.06973 11.4985 4.5994C11.4985 4.80637 11.4985 5.01334 11.5675 5.19732C10.1647 6.00221 9.1988 7.47402 9.1988 9.1988C9.1988 10.2567 9.56675 11.1995 10.1647 11.9814C9.86966 12.1845 9.62788 12.4556 9.45976 12.7718C9.29164 13.088 9.20213 13.4401 9.1988 13.7982V16.9028C3.8405 18.7885 0 23.8939 0 29.8961C0 37.5081 6.18619 43.6943 13.7982 43.6943C21.4102 43.6943 27.5964 37.5081 27.5964 29.8961C27.5965 27.0446 26.7117 24.2633 25.064 21.936C23.4164 19.6087 21.0871 17.8501 18.3976 16.9028V13.7982C18.3943 13.4401 18.3048 13.088 18.1366 12.7718C17.9685 12.4556 17.7267 12.1845 17.4317 11.9814C18.0296 11.1995 18.3976 10.2567 18.3976 9.1988C18.3976 8.99182 18.3976 8.78485 18.3286 8.60087C18.7425 8.3709 19.0875 8.04895 19.3865 7.77298C21.5252 8.92283 22.997 11.1765 22.997 13.7982V13.9822C23.296 14.1431 23.5719 14.3731 23.8709 14.5571C24.3078 13.5912 24.9057 12.6483 25.6876 11.8894C27.4154 10.1666 29.7558 9.19917 32.1958 9.19917C34.6357 9.19917 36.9761 10.1666 38.7039 11.8894C40.4268 13.6172 41.3942 15.9576 41.3942 18.3976C41.3942 20.8375 40.4268 23.1779 38.7039 24.9057C36.8642 26.7455 34.4955 27.5964 32.0348 27.5964C32.1958 28.3323 32.1958 29.1142 32.1958 29.8961C32.1958 30.678 32.1268 31.4369 32.0348 32.1958C35.6453 32.1958 39.2099 30.885 41.9465 28.1483C43.2312 26.8702 44.2506 25.3508 44.9463 23.6774C45.6419 22.0041 46 20.2098 46 18.3976C46 16.5854 45.6419 14.7911 44.9463 13.1177C44.2506 11.4444 43.2312 9.925 41.9465 8.64687ZM16.0979 2.2997C17.3627 2.2997 18.3976 3.33456 18.3976 4.5994C18.3976 5.3583 18.0066 6.00221 17.4317 6.41616C16.6038 5.3123 15.293 4.5994 13.7982 4.5994C13.7982 3.33456 14.8331 2.2997 16.0979 2.2997ZM12.4644 7.38203C13.2923 8.48589 14.6031 9.1988 16.0979 9.1988C16.0979 10.4636 15.063 11.4985 13.7982 11.4985C12.5334 11.4985 11.4985 10.4636 11.4985 9.1988C11.4985 8.4399 11.8894 7.79598 12.4644 7.38203ZM22.997 29.8961C22.997 34.9784 18.8805 39.0949 13.7982 39.0949C8.71586 39.0949 4.5994 34.9784 4.5994 29.8961C4.5994 24.8138 8.71586 20.6973 13.7982 20.6973C18.8805 20.6973 22.997 24.8138 22.997 29.8961Z" fill="#00373A"/>
</svg>
