<svg width="122" height="110" viewBox="0 0 122 110" fill="none" xmlns="http://www.w3.org/2000/svg">
<g clip-path="url(#clip0_340_1097)">
<path d="M58.9602 46.5541C46.4352 44.8999 37.1006 34.9744 37.1006 23.2766C37.1006 11.5788 46.4352 1.71246 58.9602 -0.000854492V17.5459L56.3606 19.85L52.8749 22.9221L56.3606 26.1715L59.0192 28.6529V41.1188C58.4284 41.0006 57.8967 40.8824 57.3059 40.7643V29.1846L51.6933 23.9265L45.8444 29.0665L46.0217 29.4209C47.3214 32.3158 49.3892 34.7972 52.1069 36.6287V38.5783C46.3761 35.2698 42.8904 29.4209 42.8904 23.2175C42.8904 17.0142 46.3761 11.1652 52.1069 7.85677V9.80641C47.4986 12.9376 44.7219 17.9004 44.7219 23.2175C44.7219 24.3991 44.8991 25.8761 45.1355 26.6442L45.3718 27.4713L57.3059 17.0142V1.94878L56.656 2.12602C55.179 2.42142 53.7611 2.89406 52.4023 3.54394C44.1902 7.20689 38.9321 14.9464 38.9321 23.2766C38.9321 25.4035 39.2865 27.5304 39.9364 29.5391C40.2318 30.4253 40.5863 31.3115 40.9999 32.1386C43.304 36.865 47.3214 40.7643 52.4614 43.0093C53.8202 43.6001 55.2381 44.1318 56.656 44.4272C57.4241 44.6045 58.2512 44.7817 59.0783 44.8999V46.5541H58.9602Z" fill="url(#paint0_linear_340_1097)"/>
<path d="M62.9194 5.37523C67.3504 6.14327 71.3679 8.27015 74.3219 11.4014C77.4531 14.7099 79.1664 18.9045 79.1664 23.2764C79.1664 29.4798 75.6807 35.3287 69.9499 38.6372V36.7467C74.1446 33.9108 77.0395 29.1844 77.5122 24.399L77.5712 23.8082L64.7509 23.6309V44.6043L65.4008 44.427C66.8187 44.0726 68.2366 43.5999 69.5955 43.0091C77.8076 39.3462 83.0657 31.6067 83.0657 23.2764C83.0657 14.9462 77.7485 7.20671 69.5955 3.54376C68.2957 2.95296 66.8778 2.48032 65.4008 2.12584C64.5737 1.9486 63.7466 1.77136 62.8604 1.6532V-0.0010376C75.4444 1.6532 84.8972 11.5786 84.8972 23.2764C84.8972 34.9743 75.4444 44.8997 62.8604 46.5539V5.37523H62.9194ZM64.7509 21.8585H77.2168L77.0986 21.2086C76.3896 16.5413 73.6129 12.2285 69.6545 9.62899C68.3548 8.80187 66.9369 8.09291 65.4599 7.56119L64.7509 7.32487V21.8585V21.8585Z" fill="url(#paint1_linear_340_1097)"/>
<path d="M12.6411 51.4578L12.5821 68.8864H10.8097L10.8687 53.053H1.82952L1.77044 68.8864H-0.00195312L0.0571268 51.4578H12.6411Z" fill="#252626"/>
<path d="M24.3981 61.5009C24.3981 60.4966 24.1618 59.7876 23.6301 59.2559C23.0984 58.7833 22.3303 58.4879 21.326 58.4879C20.617 58.4879 19.9672 58.606 19.3764 58.8423C18.7856 59.0787 18.2538 59.4331 17.8403 59.8467L16.895 58.7242C17.3676 58.2515 18.0175 57.838 18.7856 57.5426C19.5536 57.2472 20.4398 57.0699 21.4441 57.0699C22.094 57.0699 22.6257 57.1881 23.2165 57.3063C23.7483 57.4835 24.2209 57.7198 24.6345 58.0743C25.048 58.4288 25.3434 58.8423 25.5797 59.3741C25.8161 59.9058 25.9342 60.4966 25.9342 61.2055V66.2864C25.9342 66.759 25.9342 67.1726 25.9933 67.6452C26.0524 68.1179 26.0524 68.5314 26.1115 68.8268H24.6345C24.5754 68.5314 24.5754 68.236 24.5163 67.9406C24.4572 67.5862 24.4572 67.2908 24.4572 66.9954H24.3981C23.8664 67.7634 23.2756 68.2951 22.6257 68.6496C21.9759 69.0041 21.1487 69.1222 20.2035 69.1222C19.7308 69.1222 19.3173 69.0632 18.8446 68.945C18.372 68.8268 17.9584 68.5905 17.5449 68.3542C17.1313 68.0588 16.8359 67.7043 16.5996 67.2908C16.3633 66.8181 16.2451 66.2864 16.2451 65.6365C16.2451 64.7503 16.4814 64.0414 16.9541 63.5097C17.4267 62.9779 18.0175 62.6235 18.7856 62.3281C19.5536 62.0917 20.3807 61.9145 21.3851 61.8554C22.3894 61.7963 23.3938 61.7373 24.4572 61.7373L24.3981 61.5009ZM23.9255 63.2143C23.2165 63.2143 22.5667 63.2143 21.8577 63.2733C21.1487 63.3324 20.4989 63.4506 19.9672 63.6278C19.3764 63.8051 18.9628 64.0414 18.5492 64.3959C18.1948 64.7503 18.0175 65.1639 18.0175 65.6956C18.0175 66.1092 18.0766 66.4637 18.2538 66.7591C18.4311 67.0544 18.6083 67.2908 18.9037 67.468C19.14 67.6452 19.4354 67.7634 19.7899 67.8225C20.0853 67.8816 20.4398 67.9406 20.7352 67.9406C21.326 67.9406 21.8577 67.8225 22.3303 67.6452C22.803 67.468 23.1575 67.1726 23.5119 66.8181C23.8073 66.4636 24.0437 66.0501 24.2209 65.5775C24.3981 65.1048 24.4572 64.6322 24.4572 64.1005V63.2143H23.9255Z" fill="#252626"/>
<path d="M31.8427 69.005H30.1885L30.2476 57.4844H31.9018V62.1517H38.4597V57.4844H40.1139L40.0548 69.005H38.4006V63.5106H31.8427V69.005Z" fill="#252626"/>
<path d="M43.481 57.5432H45.1352V59.1974C45.1352 59.9654 45.1352 60.6153 45.1943 61.147C45.2534 61.6787 45.3715 62.0923 45.6078 62.4468C45.8441 62.8013 46.1986 63.0376 46.6713 63.1557C47.1439 63.333 47.7938 63.3921 48.6209 63.3921H51.1613V57.5432H52.8156L52.7565 69.0637H51.1023V64.7509H48.5618C47.4984 64.7509 46.6122 64.6327 45.9623 64.4555C45.3124 64.2783 44.7807 63.9829 44.3672 63.5693C44.0127 63.1557 43.7173 62.6831 43.5991 62.0923C43.481 61.5015 43.4219 60.8516 43.4219 60.0836L43.481 57.5432Z" fill="#252626"/>
<path d="M67.7037 63.0367C67.7037 63.1549 67.7037 63.273 67.7037 63.3912C67.7037 63.5094 67.7037 63.6866 67.7037 63.8048H58.0737C58.0737 64.3956 58.1918 64.9273 58.4281 65.459C58.6645 65.9907 58.9599 66.4043 59.3143 66.8178C59.6688 67.1723 60.1415 67.5268 60.6141 67.704C61.1458 67.9404 61.6775 68.0585 62.2683 68.0585C63.1545 68.0585 63.8635 67.8813 64.5134 67.4677C65.1633 67.0542 65.6359 66.5815 65.9313 66.1089L67.172 67.1132C66.463 67.9994 65.695 68.5902 64.8679 69.0038C64.0407 69.3583 63.1545 69.5355 62.2093 69.5355C61.3821 69.5355 60.555 69.3583 59.8461 69.0629C59.1371 68.7675 58.4872 68.3539 57.9555 67.7631C57.4238 67.2314 57.0102 66.5815 56.7148 65.8135C56.4194 65.0454 56.2422 64.2774 56.2422 63.3912C56.2422 62.505 56.4194 61.737 56.7148 60.9689C57.0102 60.26 57.4238 59.6101 57.9555 59.0784C58.4872 58.5467 59.078 58.1331 59.787 57.8377C60.4959 57.5423 61.264 57.3651 62.0911 57.3651C62.9773 57.3651 63.8044 57.5423 64.4543 57.8377C65.1633 58.1331 65.695 58.5467 66.1676 59.0784C66.6403 59.6101 66.9947 60.2009 67.2311 60.9098C67.5855 61.5006 67.7037 62.2687 67.7037 63.0367ZM65.9904 62.505C65.9313 61.4416 65.5768 60.4963 64.9269 59.7873C64.2771 59.0784 63.3318 58.7239 62.1502 58.7239C61.6185 58.7239 61.0867 58.8421 60.6141 59.0193C60.1415 59.1965 59.7279 59.4919 59.3734 59.8464C59.0189 60.2009 58.7235 60.6144 58.4872 61.028C58.2509 61.5006 58.1327 61.9733 58.1327 62.4459L65.9904 62.505Z" fill="#252626"/>
<path d="M79.1061 69.1812L75.325 59.6694L71.3076 69.1812H69.5352L74.616 57.6606H76.093L80.7603 69.2403L79.1061 69.1812Z" fill="#252626"/>
<path d="M99.8432 63.5106C99.8432 64.3968 99.6659 65.1648 99.3705 65.9329C99.0751 66.6418 98.6616 67.2917 98.0708 67.8234C97.539 68.3551 96.8892 68.7687 96.1211 69.0641C95.3531 69.3595 94.526 69.5367 93.6398 69.5367C92.7536 69.5367 91.9855 69.3595 91.2175 69.1232C90.5085 68.8278 89.8587 68.4142 89.3269 67.8825C88.7952 67.3508 88.3817 66.76 88.0272 66.051C87.7318 65.3421 87.5545 64.574 87.4955 63.7469H85.0732V69.2413H83.4189L83.478 57.7208H85.1323V62.3881H87.6727C87.7909 61.6791 88.0272 61.0292 88.3817 60.3793C88.7361 59.7885 89.1497 59.2568 89.6814 58.8433C90.2131 58.4297 90.8039 58.0752 91.5129 57.8389C92.2218 57.6026 92.9308 57.4844 93.7579 57.4844C94.6441 57.4844 95.4712 57.6617 96.2393 57.9571C97.0073 58.2525 97.6572 58.666 98.1889 59.2568C98.7206 59.7886 99.1342 60.4384 99.4296 61.2065C99.6659 61.8563 99.8432 62.6244 99.8432 63.5106ZM98.0117 63.5106C98.0117 62.8607 97.8935 62.2699 97.7163 61.6791C97.539 61.0883 97.2436 60.6157 96.8301 60.2021C96.4756 59.7886 96.003 59.4341 95.4713 59.1977C94.9395 58.9614 94.3487 58.8433 93.6398 58.8433C92.9899 58.8433 92.34 58.9614 91.8083 59.1977C91.2766 59.4341 90.8039 59.7886 90.4495 60.2021C90.095 60.6157 89.7996 61.0883 89.5633 61.6791C89.3269 62.2699 89.2679 62.8607 89.2679 63.5106C89.2679 64.1605 89.386 64.7513 89.5633 65.3421C89.7405 65.9329 90.0359 66.4055 90.4495 66.8191C90.8039 67.2326 91.2766 67.5871 91.8083 67.8234C92.34 68.0597 92.9308 68.1779 93.6398 68.1779C94.2896 68.1779 94.9395 68.0597 95.4713 67.8234C96.003 67.5871 96.4756 67.2326 96.8301 66.8191C97.1846 66.4055 97.48 65.9329 97.7163 65.3421C97.9526 64.7513 98.0117 64.1605 98.0117 63.5106Z" fill="#252626"/>
<path d="M104.983 69.3001H103.329L103.388 57.7795H110.537V59.1974H105.042L104.983 69.3001Z" fill="#252626"/>
<path d="M120.225 61.9154C120.225 60.9111 119.989 60.2021 119.457 59.6704C118.926 59.1978 118.157 58.9023 117.153 58.9023C116.444 58.9023 115.794 59.0205 115.204 59.2568C114.613 59.4932 114.081 59.8476 113.667 60.2612L112.722 59.1387C113.195 58.666 113.845 58.2525 114.613 57.9571C115.381 57.6617 116.267 57.4844 117.271 57.4844C117.921 57.4844 118.453 57.6026 119.044 57.7208C119.575 57.898 120.048 58.1343 120.462 58.4888C120.875 58.8433 121.171 59.2568 121.407 59.7885C121.643 60.3203 121.761 60.9111 121.761 61.62V66.7009C121.761 67.1735 121.761 67.5871 121.82 68.0597C121.88 68.5324 121.88 68.9459 121.939 69.2413H120.462C120.403 68.9459 120.403 68.6505 120.343 68.3551C120.284 68.0007 120.284 67.7053 120.284 67.4099H120.225C119.694 68.1779 119.103 68.7096 118.453 69.0641C117.803 69.4186 116.976 69.5367 116.031 69.5367C115.558 69.5367 115.144 69.4777 114.672 69.3595C114.199 69.2413 113.786 69.005 113.372 68.7687C112.958 68.4733 112.663 68.1188 112.427 67.7053C112.19 67.2326 112.072 66.7009 112.072 66.051C112.072 65.1648 112.309 64.4559 112.781 63.9241C113.254 63.3924 113.845 63.0379 114.613 62.7425C115.381 62.5062 116.208 62.329 117.212 62.2699C118.217 62.2108 119.221 62.1517 120.284 62.1517L120.225 61.9154ZM119.753 63.5697C119.044 63.5697 118.394 63.5697 117.685 63.6287C116.976 63.6878 116.326 63.806 115.794 63.9832C115.204 64.1605 114.79 64.3968 114.376 64.7513C114.022 65.1057 113.845 65.5193 113.845 66.051C113.845 66.4646 113.904 66.8191 114.081 67.1145C114.258 67.4099 114.435 67.6462 114.731 67.8234C114.967 68.0007 115.263 68.1188 115.617 68.1779C115.912 68.237 116.267 68.2961 116.562 68.2961C117.153 68.2961 117.685 68.1779 118.157 68.0007C118.63 67.8234 118.985 67.528 119.339 67.1735C119.634 66.8191 119.871 66.4055 120.048 65.9329C120.225 65.4602 120.284 64.9876 120.284 64.4559V63.5697H119.753Z" fill="#252626"/>
<path d="M6.79199 90.5688L6.85107 73.1403H8.62347V80.5843C9.09611 80.5843 9.50967 80.5843 9.92323 80.6434C10.3368 80.7025 10.7503 80.7025 11.1639 80.7616L17.8399 73.1993H19.7896L12.9954 81.1751C15.0632 81.825 16.6583 82.9475 17.7809 84.4836C18.9034 86.0788 19.6714 88.1465 20.0259 90.6279H18.0763C17.8399 89.1509 17.4264 87.8511 16.9537 86.7877C16.4811 85.7243 15.8312 84.8381 15.0632 84.1291C14.2951 83.4202 13.4089 82.9475 12.3455 82.6521C11.2821 82.3567 10.0414 82.1795 8.56439 82.2386L8.50531 90.6279L6.79199 90.5688Z" fill="#252626"/>
<path d="M31.0153 83.1834C31.0153 82.1791 30.779 81.4701 30.2473 80.9384C29.7156 80.4658 28.9475 80.1704 27.9432 80.1704C27.2342 80.1704 26.5843 80.2885 25.9935 80.5248C25.4027 80.7612 24.871 81.1156 24.4575 81.5292L23.5122 80.4067C23.9848 79.934 24.6347 79.5205 25.4027 79.2251C26.1708 78.9297 27.057 78.7524 28.0613 78.7524C28.7112 78.7524 29.2429 78.8706 29.8337 78.9888C30.3655 79.166 30.8381 79.4023 31.2517 79.7568C31.6652 80.1113 31.9606 80.5248 32.1969 81.0566C32.4332 81.5883 32.5514 82.1791 32.5514 82.888V87.9689C32.5514 88.4415 32.5514 88.8551 32.6105 89.3277C32.6696 89.8004 32.6696 90.2139 32.7286 90.5093H31.2517C31.1926 90.2139 31.1926 89.9185 31.1335 89.6231C31.0744 89.2687 31.0744 88.9733 31.0744 88.6779H31.0153C30.4836 89.4459 29.8928 89.9776 29.2429 90.3321C28.5931 90.6866 27.7659 90.8047 26.8207 90.8047C26.348 90.8047 25.9345 90.7457 25.4618 90.6275C24.9892 90.5093 24.5756 90.273 24.1621 90.0367C23.7485 89.7413 23.4531 89.3868 23.2168 88.9733C22.9805 88.5006 22.8623 87.9689 22.8623 87.319C22.8623 86.4328 23.0986 85.7239 23.5713 85.1921C24.0439 84.6604 24.6347 84.3059 25.4027 84.0105C26.1708 83.7742 26.9979 83.597 28.0023 83.5379C29.0066 83.4788 30.011 83.4197 31.0744 83.4197L31.0153 83.1834ZM30.4836 84.8967C29.7747 84.8967 29.1248 84.8968 28.4158 84.9558C27.7069 85.0149 27.057 85.1331 26.5253 85.3103C25.9345 85.4875 25.5209 85.7239 25.1073 86.0783C24.7529 86.4328 24.5756 86.8464 24.5756 87.3781C24.5756 87.7917 24.6347 88.1461 24.8119 88.4415C24.9892 88.7369 25.1664 88.9733 25.4618 89.1505C25.6981 89.3277 25.9935 89.4459 26.348 89.505C26.6434 89.5641 26.9979 89.6231 27.2933 89.6231C27.8841 89.6231 28.4158 89.505 28.8885 89.3277C29.3611 89.1505 29.7156 88.8551 30.0701 88.5006C30.3655 88.1461 30.6018 87.7326 30.779 87.2599C30.9562 86.7873 31.0153 86.3147 31.0153 85.7829V84.8967H30.4836Z" fill="#252626"/>
<path d="M34.9131 79.1669L45.0157 79.226V80.6439H40.6438L40.5848 90.7465H38.9305L38.9896 80.6439H34.9131V79.1669Z" fill="#252626"/>
<path d="M58.0147 84.66C58.0147 84.7782 58.0147 84.8963 58.0147 85.0145C58.0147 85.1326 58.0147 85.3099 58.0147 85.4281H48.4438C48.4438 86.0189 48.5619 86.5506 48.7983 87.0823C49.0346 87.614 49.33 88.0276 49.6845 88.4411C50.0389 88.7956 50.5116 89.1501 50.9842 89.3273C51.5159 89.5636 52.0477 89.6818 52.6385 89.6818C53.5247 89.6818 54.2336 89.5046 54.8835 89.091C55.5334 88.6774 56.006 88.2048 56.3014 87.7322L57.5421 88.7365C56.8331 89.6227 56.0651 90.2135 55.238 90.6271C54.4109 90.9816 53.5247 91.1588 52.5794 91.1588C51.7523 91.1588 50.9251 90.9816 50.2162 90.6862C49.5072 90.3908 48.8573 89.9772 48.3256 89.3864C47.7939 88.8547 47.3803 88.2048 47.0849 87.4368C46.7895 86.6687 46.6123 85.9007 46.6123 85.0145C46.6123 84.1283 46.7895 83.3603 47.0849 82.5922C47.3803 81.8833 47.7939 81.2334 48.3256 80.7017C48.8573 80.1699 49.4481 79.7564 50.1571 79.461C50.8661 79.1656 51.6341 78.9883 52.4612 78.9883C53.3474 78.9883 54.1745 79.1656 54.8244 79.461C55.5334 79.7564 56.0651 80.1699 56.5377 80.7017C57.0104 81.2334 57.3648 81.8242 57.6012 82.5331C57.8966 83.1239 58.0147 83.892 58.0147 84.66ZM56.3014 84.1283C56.2423 83.0649 55.8878 82.1196 55.238 81.4106C54.5881 80.7017 53.6428 80.3472 52.4612 80.3472C51.9295 80.3472 51.3978 80.4653 50.9251 80.6426C50.4525 80.8198 50.0389 81.1152 49.6845 81.4697C49.33 81.8242 49.0346 82.2377 48.7983 82.6513C48.5619 83.1239 48.4438 83.5966 48.4438 84.0692L56.3014 84.1283Z" fill="#252626"/>
<path d="M63.2138 96.7123H61.5596L61.6187 79.2837H63.2729V81.2925H63.332C63.8046 80.5244 64.4545 79.9927 65.2225 79.5791C66.0496 79.2247 66.8177 78.9883 67.6448 78.9883C68.531 78.9883 69.3581 79.1656 70.0671 79.461C70.776 79.7564 71.4259 80.229 71.9576 80.7607C72.4894 81.2925 72.8438 81.9423 73.1392 82.7104C73.4346 83.4784 73.5528 84.2465 73.5528 85.0736C73.5528 85.9007 73.3756 86.7278 73.1392 87.4368C72.8438 88.1457 72.4303 88.7956 71.8986 89.3273C71.3668 89.859 70.776 90.2726 70.008 90.6271C69.299 90.9225 68.4719 91.0997 67.5266 91.0997C66.6995 91.0997 65.8724 90.9225 65.1044 90.5089C64.3363 90.0954 63.6864 89.5636 63.2138 88.8547H63.1547L63.2138 96.7123ZM71.8986 85.0736C71.8986 84.4237 71.7804 83.8329 71.6032 83.2421C71.4259 82.6513 71.1305 82.1787 70.776 81.7651C70.4216 81.3515 69.9489 80.9971 69.4172 80.7607C68.8855 80.5244 68.2356 80.4063 67.5857 80.4063C66.9358 80.4063 66.345 80.5244 65.8133 80.7607C65.2816 80.9971 64.809 81.3515 64.3954 81.7651C63.9818 82.1787 63.6864 82.6513 63.4501 83.2421C63.2138 83.8329 63.0957 84.4237 63.0957 85.0736C63.0957 85.7235 63.2138 86.3143 63.4501 86.9051C63.6864 87.4959 63.9818 87.9685 64.3954 88.3821C64.809 88.7956 65.2816 89.1501 65.8133 89.3864C66.345 89.6227 66.9358 89.7409 67.5857 89.7409C68.2947 89.7409 68.8855 89.6227 69.4172 89.3864C69.9489 89.1501 70.4216 88.7956 70.776 88.3821C71.1305 87.9685 71.4259 87.4959 71.6032 86.9051C71.7804 86.3143 71.8986 85.7235 71.8986 85.0736Z" fill="#252626"/>
<path d="M85.9592 81.5286L78.8696 90.8632H77.1562L77.2153 79.3427H78.9286L78.8696 88.3819L85.9592 79.3427H87.6725L87.6134 90.8632H85.9001L85.9592 81.5286Z" fill="#252626"/>
<path d="M93.58 90.9229H91.9258L91.9849 79.4023H93.6391V84.0696H100.197V79.4023H101.851L101.792 90.9229H100.138V85.4284H93.58V90.9229Z" fill="#252626"/>
<path d="M113.491 83.5382C113.491 82.5339 113.255 81.8249 112.723 81.2932C112.191 80.8206 111.423 80.5252 110.419 80.5252C109.71 80.5252 109.06 80.6433 108.469 80.8796C107.878 81.116 107.347 81.4704 106.933 81.884L105.988 80.7615C106.46 80.2888 107.11 79.8753 107.878 79.5799C108.646 79.2845 109.533 79.1072 110.537 79.1072C111.187 79.1072 111.719 79.2254 112.309 79.3436C112.841 79.5208 113.314 79.7571 113.727 80.1116C114.141 80.4661 114.436 80.8796 114.673 81.4114C114.909 81.9431 115.027 82.5339 115.027 83.2428V88.3237C115.027 88.7963 115.027 89.2099 115.086 89.6825C115.145 90.1552 115.145 90.5687 115.204 90.8641H113.727C113.668 90.5687 113.668 90.2733 113.609 89.9779C113.55 89.6235 113.55 89.3281 113.55 89.0327H113.491C112.959 89.8007 112.368 90.3324 111.719 90.6869C111.069 91.0414 110.242 91.1595 109.296 91.1595C108.824 91.1595 108.41 91.1005 107.937 90.9823C107.465 90.8641 107.051 90.6278 106.638 90.3915C106.224 90.0961 105.929 89.7416 105.692 89.3281C105.456 88.8554 105.338 88.3237 105.338 87.6738C105.338 86.7876 105.574 86.0787 106.047 85.547C106.519 85.0152 107.11 84.6608 107.878 84.3654C108.646 84.129 109.473 83.9518 110.478 83.8927C111.482 83.8336 112.487 83.7746 113.55 83.7746L113.491 83.5382ZM112.959 85.2516C112.25 85.2516 111.6 85.2515 110.891 85.3106C110.182 85.3697 109.533 85.4879 109.001 85.6651C108.41 85.8424 107.996 86.0787 107.583 86.4332C107.228 86.7876 107.051 87.2012 107.051 87.7329C107.051 88.1465 107.11 88.5009 107.288 88.7963C107.465 89.0917 107.642 89.3281 107.937 89.5053C108.174 89.6825 108.469 89.8007 108.824 89.8598C109.119 89.9189 109.473 89.9779 109.769 89.9779C110.36 89.9779 110.891 89.8598 111.364 89.6825C111.837 89.5053 112.191 89.2099 112.546 88.8554C112.841 88.5009 113.077 88.0874 113.255 87.6148C113.432 87.1421 113.491 86.6695 113.491 86.1378V85.2516H112.959Z" fill="#252626"/>
<path d="M31.0156 108.351H30.3066L33.1425 101.794H33.7924L36.6282 108.351H35.8602L35.1512 106.638H31.7836L31.0156 108.351ZM31.9609 106.047H34.8558L33.4379 102.562L31.9609 106.047Z" fill="#C5846B"/>
<path d="M40.0542 108.352V109.652H39.4043V107.761H40.2314L42.4765 101.853H43.1263L45.3123 107.761H46.1394V109.652H45.4895V108.352H40.0542ZM40.8813 107.761H44.6033L42.7128 102.562L40.8813 107.761Z" fill="#C5846B"/>
<path d="M49.7441 101.853H51.6938C51.9301 101.853 52.1664 101.853 52.4618 101.912C52.6981 101.972 52.9345 102.031 53.1117 102.208C53.2889 102.326 53.4662 102.503 53.5843 102.74C53.7025 102.976 53.7616 103.212 53.7616 103.567C53.7616 103.921 53.6434 104.217 53.4662 104.453C53.2299 104.689 52.9935 104.866 52.6391 104.985C53.0526 105.044 53.4071 105.221 53.7025 105.457C53.9979 105.753 54.1161 106.107 54.1161 106.58C54.1161 106.875 54.057 107.112 53.9388 107.348C53.8207 107.584 53.6434 107.761 53.4662 107.939C53.2299 108.116 52.9935 108.234 52.6981 108.293C52.4027 108.352 52.0483 108.411 51.6938 108.411H49.7441V101.853V101.853ZM50.4531 104.689H51.8119C51.9892 104.689 52.1073 104.689 52.2846 104.63C52.4618 104.571 52.58 104.512 52.7572 104.453C52.8754 104.335 52.9935 104.217 53.1117 104.098C53.1708 103.921 53.2299 103.744 53.2299 103.567C53.2299 103.33 53.1708 103.153 53.1117 103.035C53.0526 102.917 52.9345 102.799 52.7572 102.681C52.6391 102.562 52.4618 102.503 52.2846 102.503C52.1073 102.444 51.871 102.444 51.6938 102.444H50.5122V104.689H50.4531ZM50.4531 107.82H51.6938C51.9301 107.82 52.1664 107.82 52.4027 107.761C52.6391 107.702 52.8163 107.643 52.9935 107.525C53.1708 107.407 53.2889 107.289 53.4071 107.112C53.5253 106.934 53.5843 106.757 53.5843 106.521C53.5843 106.107 53.4662 105.753 53.1708 105.575C52.8754 105.339 52.4618 105.28 51.9301 105.28H50.5713V107.82H50.4531Z" fill="#C5846B"/>
<path d="M64.8689 105.102C64.8689 105.575 64.8098 106.047 64.6326 106.461C64.4553 106.874 64.219 107.229 63.9236 107.524C63.6282 107.82 63.2737 108.056 62.8602 108.233C62.4466 108.411 61.974 108.47 61.5013 108.47C61.0287 108.47 60.5561 108.411 60.1425 108.233C59.7289 108.056 59.3745 107.82 59.0791 107.524C58.7837 107.229 58.5473 106.874 58.3701 106.461C58.1929 106.047 58.1338 105.575 58.1338 105.102C58.1338 104.629 58.1929 104.157 58.3701 103.743C58.5473 103.33 58.7837 102.975 59.0791 102.68C59.3745 102.384 59.7289 102.148 60.1425 101.971C60.5561 101.794 61.0287 101.734 61.5013 101.734C61.974 101.734 62.4466 101.794 62.8602 101.971C63.2737 102.148 63.6282 102.384 63.9236 102.68C64.219 102.975 64.4553 103.33 64.6326 103.743C64.8098 104.157 64.8689 104.629 64.8689 105.102ZM64.1599 105.102C64.1599 104.748 64.1009 104.334 63.9827 104.039C63.8645 103.684 63.6873 103.389 63.451 103.152C63.2147 102.916 62.9193 102.68 62.6239 102.503C62.2694 102.325 61.9149 102.266 61.5013 102.266C61.0878 102.266 60.7333 102.325 60.3788 102.503C60.0243 102.68 59.7289 102.857 59.5517 103.152C59.3154 103.389 59.1381 103.743 59.02 104.039C58.9018 104.393 58.8427 104.748 58.8427 105.102C58.8427 105.457 58.9018 105.87 59.02 106.165C59.1381 106.52 59.3154 106.815 59.5517 107.052C59.788 107.288 60.0834 107.524 60.3788 107.642C60.7333 107.82 61.0878 107.879 61.5013 107.879C61.9149 107.879 62.2694 107.82 62.6239 107.642C62.9783 107.465 63.2737 107.288 63.451 107.052C63.6873 106.815 63.8645 106.52 63.9827 106.165C64.1009 105.87 64.1599 105.516 64.1599 105.102Z" fill="#C5846B"/>
<path d="M69.0635 108.352V101.794H69.7134V104.57C69.8906 104.57 70.0678 104.57 70.186 104.57C70.3632 104.57 70.4814 104.57 70.6586 104.63L73.14 101.794H73.8489L71.3085 104.807C72.0765 105.043 72.6673 105.457 73.0809 106.047C73.4945 106.638 73.7899 107.406 73.908 108.352H73.2581C73.14 107.82 73.0218 107.288 72.8446 106.934C72.6674 106.52 72.431 106.225 72.1356 105.929C71.8402 105.693 71.4858 105.516 71.1313 105.398C70.7177 105.279 70.2451 105.22 69.7134 105.22V108.352H69.0635V108.352Z" fill="#C5846B"/>
<path d="M78.1611 108.352H77.4521L80.288 101.794H80.9379L83.7737 108.352H83.0057L82.2967 106.638H78.9291L78.1611 108.352ZM79.1064 106.047H82.0013L80.5834 102.562L79.1064 106.047Z" fill="#C5846B"/>
<path d="M89.5634 108.352H88.9135V102.385H86.7275V101.794H91.7493V102.385H89.5634V108.352V108.352Z" fill="#C5846B"/>
</g>
<defs>
<linearGradient id="paint0_linear_340_1097" x1="34.1806" y1="4.98017" x2="41.0738" y2="10.8522" gradientUnits="userSpaceOnUse">
<stop stop-color="#F0E5DE"/>
<stop offset="0.9994" stop-color="#C5846B"/>
</linearGradient>
<linearGradient id="paint1_linear_340_1097" x1="38.6275" y1="-0.239249" x2="45.5208" y2="5.63276" gradientUnits="userSpaceOnUse">
<stop stop-color="#F0E5DE"/>
<stop offset="0.9994" stop-color="#C5846B"/>
</linearGradient>
<clipPath id="clip0_340_1097">
<rect width="122" height="109.652" fill="white"/>
</clipPath>
</defs>
</svg>
