<svg width="37" height="36" viewBox="0 0 37 36" fill="none" xmlns="http://www.w3.org/2000/svg">
<circle cx="18.7436" cy="17.9145" r="17.9145" fill="#00373A"/>
<path d="M18.6689 14.9C17.9095 14.9 17.167 15.1111 16.5356 15.5067C15.9041 15.9023 15.4119 16.4645 15.1212 17.1223C14.8306 17.7802 14.7546 18.504 14.9027 19.2023C15.0509 19.9007 15.4166 20.5421 15.9537 21.0456C16.4907 21.5491 17.1749 21.8919 17.9198 22.0308C18.6647 22.1697 19.4368 22.0984 20.1384 21.826C20.8401 21.5535 21.4398 21.0921 21.8618 20.5001C22.2837 19.908 22.5089 19.212 22.5089 18.5C22.5089 17.5452 22.1044 16.6295 21.3842 15.9544C20.6641 15.2793 19.6874 14.9 18.6689 14.9ZM18.6689 20.9C18.1626 20.9 17.6677 20.7592 17.2467 20.4955C16.8257 20.2318 16.4976 19.857 16.3038 19.4184C16.1101 18.9799 16.0594 18.4973 16.1581 18.0318C16.2569 17.5662 16.5007 17.1386 16.8588 16.8029C17.2168 16.4673 17.6729 16.2387 18.1695 16.1461C18.6661 16.0535 19.1808 16.101 19.6486 16.2827C20.1164 16.4643 20.5162 16.772 20.7975 17.1666C21.0788 17.5613 21.2289 18.0253 21.2289 18.5C21.2268 19.1359 20.9564 19.7452 20.4768 20.1949C19.9972 20.6445 19.3472 20.898 18.6689 20.9ZM22.1889 11H15.1489C13.9608 11 12.8213 11.4425 11.9811 12.2302C11.1409 13.0178 10.6689 14.0861 10.6689 15.2V21.8C10.6689 22.9139 11.1409 23.9822 11.9811 24.7698C12.8213 25.5575 13.9608 26 15.1489 26H22.1889C23.3771 26 24.5166 25.5575 25.3568 24.7698C26.1969 23.9822 26.6689 22.9139 26.6689 21.8V15.2C26.6689 14.0861 26.1969 13.0178 25.3568 12.2302C24.5166 11.4425 23.3771 11 22.1889 11ZM25.3889 21.8C25.3889 22.194 25.3062 22.5841 25.1454 22.9481C24.9845 23.312 24.7488 23.6427 24.4517 23.9213C24.1545 24.1999 23.8018 24.4209 23.4135 24.5716C23.0253 24.7224 22.6092 24.8 22.1889 24.8H15.1489C14.7287 24.8 14.3126 24.7224 13.9244 24.5716C13.5361 24.4209 13.1834 24.1999 12.8862 23.9213C12.5891 23.6427 12.3533 23.312 12.1925 22.9481C12.0317 22.5841 11.9489 22.194 11.9489 21.8V15.2C11.9489 14.4044 12.2861 13.6413 12.8862 13.0787C13.4863 12.5161 14.3003 12.2 15.1489 12.2H22.1889C22.6092 12.2 23.0253 12.2776 23.4135 12.4284C23.8018 12.5791 24.1545 12.8001 24.4517 13.0787C24.7488 13.3573 24.9845 13.688 25.1454 14.0519C25.3062 14.4159 25.3889 14.806 25.3889 15.2V21.8ZM23.7889 14.6C23.7889 14.778 23.7326 14.952 23.6272 15.1C23.5217 15.248 23.3717 15.3634 23.1963 15.4315C23.0209 15.4996 22.8279 15.5174 22.6417 15.4827C22.4554 15.448 22.2844 15.3623 22.1501 15.2364C22.0159 15.1105 21.9244 14.9502 21.8874 14.7756C21.8503 14.601 21.8694 14.42 21.942 14.2556C22.0147 14.0911 22.1377 13.9506 22.2956 13.8517C22.4535 13.7528 22.6391 13.7 22.8289 13.7C23.0836 13.7 23.3277 13.7948 23.5078 13.9636C23.6878 14.1324 23.7889 14.3613 23.7889 14.6Z" fill="white"/>
</svg>
