<svg width="37" height="37" viewBox="0 0 37 37" fill="none" xmlns="http://www.w3.org/2000/svg">
<circle cx="18.5727" cy="18.0874" r="17.9145" fill="#00373A"/>
<path d="M26.3369 18.2406V23.2574H23.3367V18.5758C23.3367 17.4006 22.9027 16.5987 21.8163 16.5987C20.9875 16.5987 20.4933 17.1387 20.2763 17.6625C20.1979 17.8498 20.1769 18.1103 20.1769 18.3709V23.2574H17.1753C17.1753 23.2574 17.2159 15.3299 17.1753 14.5089H20.1769V15.7478L20.1573 15.7763H20.1769V15.7492C20.5759 15.1521 21.2871 14.3026 22.8817 14.3026C24.8557 14.3026 26.3369 15.5538 26.3369 18.2406ZM14.0351 10.29C13.0089 10.29 12.3369 10.9441 12.3369 11.8017C12.3369 12.643 12.9893 13.3148 13.9959 13.3148H14.0155C15.0627 13.3148 15.7137 12.6417 15.7137 11.8017C15.6941 10.9441 15.0627 10.29 14.0351 10.29ZM12.5147 23.2574H15.5163V14.5089H12.5147V23.2574Z" fill="white"/>
</svg>
